<svg xmlns="http://www.w3.org/2000/svg" xmlns:xlink="http://www.w3.org/1999/xlink" xmlns:lucid="lucid" width="2529" height="1908"><g transform="translate(669 340)" lucid:page-tab-id=".Q4MUjXso07N"><path d="M-1000-500h3000v5000h-3000z" fill="#fff"/><path d="M-156.14-284.8a8 8 0 0 1 8-8h1944a8 8 0 0 1 8 8v1764a8 8 0 0 1-8 8h-1944a8 8 0 0 1-8-8z" stroke="#000" stroke-opacity="0" fill="#edf5ff"/><use xlink:href="#a" transform="matrix(1,0,0,1,-148.14230769230778,-284.7876923076926) translate(701.1172839506173 24.888888888888893)"/><use xlink:href="#b" transform="matrix(1,0,0,1,-148.14230769230778,-284.7876923076926) translate(820.2901234567902 24.888888888888893)"/><use xlink:href="#c" transform="matrix(1,0,0,1,-148.14230769230778,-284.7876923076926) translate(987.5987654320988 24.888888888888893)"/><use xlink:href="#d" transform="matrix(1,0,0,1,-148.14230769230778,-284.7876923076926) translate(1032.4506172839506 24.888888888888893)"/><use xlink:href="#e" transform="matrix(1,0,0,1,-148.14230769230778,-284.7876923076926) translate(1125.6111111111113 24.888888888888893)"/><use xlink:href="#f" transform="matrix(1,0,0,1,-148.14230769230778,-284.7876923076926) translate(1170.462962962963 24.888888888888893)"/><path d="M123.86 340.4c0 33.15-35.82 60-80 60-44.19 0-80-26.85-80-60 0-33.13 35.81-60 80-60 44.18 0 80 26.87 80 60z" stroke="#000" fill="#4d9eff"/><use xlink:href="#g" transform="matrix(1,0,0,1,-12.142307692307895,304.4100066334154) translate(23.525 28.799999999999997)"/><use xlink:href="#h" transform="matrix(1,0,0,1,-12.142307692307895,304.4100066334154) translate(26.025 50.4)"/><path d="M1683.86 24.97c0 33.14-44.77 60-100 60s-100-26.87-100-60c0-33.14 44.77-60 100-60s100 26.86 100 60z" stroke="#000" stroke-width="4" fill="#4d9eff"/><use xlink:href="#i" transform="matrix(1,0,0,1,1513.857692307692,-11.03184648868006) translate(-21 41.333333333333336)"/><path d="M-475.25 514.75c0 19.2-15.56 34.75-34.75 34.75-19.2 0-34.75-15.56-34.75-34.75 0-19.2 15.56-34.75 34.75-34.75 19.2 0 34.75 15.56 34.75 34.75z" stroke="#333" stroke-width="4" fill="#fff"/><path d="M-510 549.5v91.3a14.6 14.6 0 0 0 4.22 10.27L-400 758m-110-111.2L-620 758m0-173.75h220" stroke="#333" stroke-width="4" fill="none"/><path d="M-620 486a6 6 0 0 1 6-6h208a6 6 0 0 1 6 6v288a6 6 0 0 1-6 6h-208a6 6 0 0 1-6-6z" fill="none"/><use xlink:href="#j" transform="matrix(1,0,0,1,-700,758) translate(158.26604938271606 17.95555555555555)"/><path d="M123.86 480.4c0 33.15-35.82 60-80 60-44.19 0-80-26.85-80-60 0-33.13 35.81-60 80-60 44.18 0 80 26.87 80 60z" stroke="#000" fill="#4d9eff"/><use xlink:href="#g" transform="matrix(1,0,0,1,-12.142307692307895,444.4100066334154) translate(23.525 28.799999999999997)"/><use xlink:href="#k" transform="matrix(1,0,0,1,-12.142307692307895,444.4100066334154) translate(26.5 50.4)"/><path d="M123.86 620.4c0 33.15-35.82 60-80 60-44.19 0-80-26.85-80-60 0-33.13 35.81-60 80-60 44.18 0 80 26.87 80 60z" stroke="#000" fill="#4d9eff"/><use xlink:href="#l" transform="matrix(1,0,0,1,-12.142307692307895,584.4100066334154) translate(4.024999999999999 39.6)"/><use xlink:href="#m" transform="matrix(1,0,0,1,-12.142307692307895,584.4100066334154) translate(73.975 39.6)"/><path d="M123.86 760.4c0 33.15-35.82 60-80 60-44.19 0-80-26.85-80-60 0-33.13 35.81-60 80-60 44.18 0 80 26.87 80 60z" stroke="#000" fill="#4d9eff"/><use xlink:href="#n" transform="matrix(1,0,0,1,-12.142307692307895,724.4100066334154) translate(23.525 28.799999999999997)"/><use xlink:href="#o" transform="matrix(1,0,0,1,-12.142307692307895,724.4100066334154) translate(14.549999999999997 50.4)"/><path d="M123.86 900.4c0 33.15-35.82 60-80 60-44.19 0-80-26.85-80-60 0-33.13 35.81-60 80-60 44.18 0 80 26.87 80 60z" stroke="#000" fill="#4d9eff"/><use xlink:href="#p" transform="matrix(1,0,0,1,-12.142307692307895,864.4100066334154) translate(1.0999999999999943 39.6)"/><use xlink:href="#q" transform="matrix(1,0,0,1,-12.142307692307895,864.4100066334154) translate(41.99999999999999 39.6)"/><path d="M553.6 606.7c0 19.7-31.44 35.65-70.24 35.65S413.1 626.4 413.1 606.7c0-19.68 31.46-35.64 70.26-35.64 38.8 0 70.25 15.96 70.25 35.64z" stroke="#000" fill="#4d9eff"/><use xlink:href="#r" transform="matrix(1,0,0,1,434.18268651623555,585.3156057899112) translate(34.5 25.1)"/><path d="M563.86 796.38c0 24.32-31.34 44.03-70 44.03s-70-19.7-70-44.02c0-24.32 31.34-44.03 70-44.03s70 19.7 70 44.03z" stroke="#000" fill="#4d9eff"/><use xlink:href="#s" transform="matrix(1,0,0,1,444.8576923076921,769.9624623302627) translate(34.525 30.1)"/><path d="M1159.4 272.4h-4.67l-.34.25h-5.1v-.95h4.66l.02-.05.4-.2h5.03zm-185.37.25h-2.2v-.95h2.2zm-7.12 0h-9.85v-.95h9.86zm-14.78 0h-9.86v-.95h9.86zm-14.8 0h-9.85v-.95h9.86zm-14.78 0h-9.86v-.95h9.86zm-14.8 0h-9.85v-.95h9.85zm-14.78 0h-9.86v-.95h9.86zm-14.8 0h-9.84v-.95h9.85zm-14.77 0h-9.87v-.95h9.86zm-14.8 0h-9.86v-.95h9.86zm-14.8 0h-9.85v-.95h9.86zm-14.78 0h-9.86v-.95h9.86zm-14.8 0h-9.85v-.95h9.86zm-14.78 0h-9.86v-.95h9.86zm-14.8 0h-9.85v-.95h9.85zm-14.77 0H750v-.95h9.87zm-14.8 0h-9.85v-.95h9.86zm-14.78 0h-4.94v-.95h4.93zm853.06-.25h-4.93v-.95h4.93zm-9.86 0h-9.86v-.95h9.86zm-14.8 0h-9.85v-.95h9.86zm-14.78 0h-9.86v-.95h9.86zm-14.8 0h-9.85v-.95h9.86zm-14.78 0h-9.86v-.95h9.86zm-14.8 0h-9.85v-.95h9.85zm-14.77 0h-9.86v-.95h9.87zm-14.8 0h-9.85v-.95h9.86zm-14.78 0h-9.87v-.95h9.86zm-14.8 0h-9.86v-.95h9.86zm-14.8 0h-9.85v-.95h9.86zm-14.78 0h-9.86v-.95h9.86zm-14.8 0h-9.85v-.95h9.86zm-14.78 0h-9.86v-.95h9.86zm-14.8 0h-9.84v-.95h9.86zm-14.77 0h-9.86v-.95h9.87zm-14.8 0h-9.85v-.95h9.86zm-14.78 0h-9.87v-.95h9.86zm-14.8 0h-9.86v-.95h9.86zm-14.8 0h-9.85v-.95h9.86zm-14.78 0h-9.86v-.95h9.86zm-14.8 0h-9.85v-.95h9.86zm-14.78 0h-9.85v-.95h9.85zm-14.78 0h-9.86v-.95h9.86zm-14.8 0h-9.85v-.95h9.87zm-14.78 0h-9.86v-.95h9.86zm-14.8 0h-9.85v-.95h9.86zm-14.78 0h-9.86v-.95h9.86zM1583.86 272.4h-.5v-.95h.5z" stroke="#333" stroke-width=".05" fill="#333"/><path d="M725.37 272.65h-.53l.02-.47v-.48h.5z" fill="#333"/><path stroke="#333" stroke-width=".05" fill="#333"/><use xlink:href="#t" transform="matrix(1,0,0,1,974.0336239378076,253.5090572649683) translate(0.0049999999999954525 24.888888888888893)"/><path d="M-507.5 618.82h187.1M-507.5 618.82h-3.5M-320.4 618.82h.5M-507.5 618.82h223.7a12 12 0 0 0 12-12V342.67a12 12 0 0 1 12-12h209.73M-507.5 618.82h-3.5" stroke="#333" fill="none"/><path d="M-36.58 330.68l-13 7.5v-15z" stroke="#333" fill="#333"/><path d="M-507.5 618.82h223.18a12 12 0 0 1 12 12v257.6a12 12 0 0 0 12 12h223.18M-507.5 618.82h-3.5" stroke="#333" fill="none"/><path d="M-36.64 900.4v.5h-.52v-.97h.53z" stroke="#333" stroke-width=".05" fill="#333"/><path d="M-507.5 618.82H-283a12 12 0 0 1 12 12v133.05a12 12 0 0 0 12 12h210.54M-507.5 618.82h-3.5" stroke="#333" fill="none"/><path d="M-34.97 775.87l-13 7.5v-15z" stroke="#333" fill="#333"/><path d="M-340.66 619.32a1.1 1.1 0 0 0 1.08 1.1h62.26c0-2.77 2.24-5 5-5 .23 0 .43 0 .67.04 2.73-.37 5.25 1.55 5.62 4.28.03.24.04.43.04.67h214.87M-340.66 619.34v-.52" stroke="#333" fill="none"/><path d="M-37.64 620.4l-13 7.5v-15z" stroke="#333" fill="#333"/><path d="M1583.36 393.84h-5.1v-.95h5.1zm-10.18 0H1563v-.95h10.18zm-15.26 0h-10.17v-.95h10.17zm-15.26 0h-10.17v-.95h10.16zm-15.26 0h-10.18v-.95h10.18zm-15.26 0h-10.18v-.95h10.18zm-15.26 0h-10.18v-.95h10.18zm-15.26 0h-10.18v-.95h10.18zm-15.27 0h-10.17v-.95h10.17zm-15.26 0h-10.18v-.95h10.17zm-15.27 0h-10.17v-.95h10.17zm-15.26 0h-10.17v-.95h10.17zm-15.26 0h-10.16v-.95h10.17zm-15.25 0h-10.18v-.95h10.18zm-15.26 0h-10.2v-.95h10.2zm-15.27 0h-10.18v-.95h10.18zm-15.27 0h-10.17v-.95h10.16zm-15.26 0h-10.17v-.95H1329zm-15.26 0h-10.17v-.95h10.17zm-15.26 0h-10.17v-.95h10.18zm-15.26 0h-10.18v-.95h10.18zm-15.26 0h-10.18v-.95h10.18zm-15.26 0h-10.18v-.95h10.18zm-15.27 0h-10.17v-.95h10.17zm-15.26 0H1212v-.95h10.17zm-15.26 0h-10.16v-.95h10.17zm-15.25 0h-10.17v-.95h10.17zm-15.26 0h-10.2v-.95h10.2zm-23.4-4.3l.34.1.32.12.28.17.26.22.22.26.18.3.13.3.08.34.05.53.04.2.07.16.1.16.12.14.13.12.16.1.17.07.18.04.2.02h5.08v.94h-5.1l-.33-.02-.33-.08-.3-.13-.3-.17-.26-.22-.2-.25-.18-.3-.13-.3-.1-.33-.03-.53-.05-.2-.07-.17-.1-.16-.12-.14-.15-.13-.16-.1-.17-.07-.2-.04-.2-.03h-5.06v-.95h5.1zm-178.37.93h-10.18v-.95h10.18zm-15.27 0H949.2v-.95h10.16zm-15.26 0h-10.17v-.95h10.17zm-15.26 0h-10.17v-.95h10.17zm-15.26 0H903.4v-.95h10.18zm-15.26 0h-10.18v-.95h10.18zm-15.26 0h-10.18v-.95h10.18zm-15.26 0h-10.18v-.95h10.18zm-15.26 0h-10.18v-.95h10.17zm-15.27 0H827.1v-.95h10.17zm-15.26 0h-10.16v-.95H822zm-15.25 0h-10.17v-.95h10.17zm-15.26 0H781.3v-.95h10.17zm-15.27 0h-10.18v-.95h10.18zm-15.26 0H750.8v-.95h10.17zm-15.26 0h-10.17v-.95h10.18zm-15.25 0h-5.1v-.95h5.1zM1583.86 393.84h-.5v-.95h.5z" stroke="#333" stroke-width=".05" fill="#333"/><path d="M725.37 390.47h-.53l.02-.46v-.48h.5z" fill="#333"/><path stroke="#333" stroke-width=".05" fill="#333"/><use xlink:href="#t" transform="matrix(1,0,0,1,975.2476755286067,371.3316377369595) translate(0.0049999999999954525 24.888888888888893)"/><path d="M1583.36 508.08h-5.07v-.95h5.06zm-10.13 0h-10.13v-.95h10.13zm-15.2 0h-10.13v-.95h10.13zm-15.2 0h-10.13v-.95h10.13zm-15.2 0h-10.12v-.95h10.14zm-15.2 0h-10.12v-.95h10.14zm-15.2 0h-10.12v-.95h10.14zm-15.18 0h-10.13v-.95h10.13zm-15.2 0h-10.13v-.95h10.13zm-15.2 0h-10.13v-.95h10.13zm-15.2 0h-10.12v-.95h10.13zm-15.2 0h-10.12v-.95h10.13zm-15.2 0h-10.12v-.95h10.13zm-15.18 0h-10.13v-.95h10.13zm-15.2 0h-10.13v-.95h10.13zm-15.2 0h-10.13v-.95h10.13zm-15.2 0h-10.12v-.95h10.13zm-15.2 0h-10.12v-.95h10.13zm-15.18 0h-10.15v-.95h10.13zm-15.2 0h-10.14v-.95h10.13zm-15.2 0h-10.14v-.95h10.13zm-15.2 0h-10.14v-.95h10.13zm-15.2 0h-10.13v-.95h10.13zm-15.2 0h-10.13v-.95h10.13zm-15.2 0h-10.13v-.95h10.14zm-15.2 0h-10.12v-.95h10.13zm-15.2 0h-10.12v-.95h10.13zm-15.18 0H1168l-.02-.95h10.14zm-26.7-7.95l.62.15.58.24.54.33.47.4.4.48.34.54.24.58.16.6.04.6.04.5.1.47.2.45.25.4.3.37.36.3.4.26.45.18.48.1.5.05h5.04v.95h-5.1l-.6-.04-.6-.15-.58-.25-.54-.33-.48-.4-.4-.5-.33-.52-.25-.58-.15-.6-.05-.6-.04-.5-.1-.48-.18-.44-.25-.4-.3-.37-.38-.3-.4-.26-.46-.2-.46-.1-.5-.04h-3.2v-.95h3.24zm-177.9.9h-10.14v-.95h10.13zm-15.2 0h-10.14v-.95h10.13zm-15.2 0H933v-.95h10.12zm-15.2 0H917.8v-.95h10.12zm-15.2 0H902.6v-.95h10.12zm-15.2 0H887.4v-.95h10.13zm-15.2 0H872.2v-.95h10.13zm-15.2 0H857v-.95h10.13zm-15.18 0H841.8v-.95h10.14zm-15.2 0H826.6v-.95h10.14zm-15.2 0H811.4v-.95h10.14zm-15.2 0h-10.12v-.95h10.13zm-15.2 0h-10.12v-.95h10.13zm-15.2 0h-10.12v-.95h10.13zm-15.18 0h-10.13v-.95h10.13zm-15.2 0h-10.13v-.95h10.13zm-15.2 0h-5.06v-.95h5.07zM1583.86 508.08h-.5v-.95h.5z" stroke="#333" stroke-width=".05" fill="#333"/><path d="M725.3 501.03h-.48l-.04-.95h.53z" fill="#333"/><path stroke="#333" stroke-width=".05" fill="#333"/><use xlink:href="#t" transform="matrix(1,0,0,1,976.6467370182105,481.8902203177053) translate(0.0049999999999954525 24.888888888888893)"/><path d="M1075.56 607.18h-5l-.22.02-.2.04-.17.08-.16.1-.14.12-.13.15-.1.15-.07.18-.05.2-.03.52-.08.34-.14.3-.18.3-.22.26-.26.22-.3.18-.3.13-.35.07-.32.03h-5.04v-.95h5l.2-.02.2-.05.17-.07.17-.1.14-.12.13-.14.1-.17.1-.18.03-.2.04-.53.08-.33.13-.32.18-.3.22-.25.27-.22.3-.18.3-.13.34-.1H1075.55zm-18.5 3.42H1047v-.95h10.06zm-186.24 0H866v-.95h4.82zm-9.84 0h-10.06v-.95h10.06zm-15.1 0h-10.04v-.95h10.05zm-15.07 0h-10.04v-.95h10.05zm-15.07 0h-10.06v-.95h10.06zm-15.1 0H790.6v-.95h10.04zm-15.07 0H775.5v-.95h10.06zm-15.08 0h-10.06v-.95h10.06zm-15.1 0h-10.04v-.95h10.05zm-15.07 0h-10.04v-.95h10.05zm-15.07 0h-10.06v-.95h10.06zm-15.1 0H700.1v-.95h10.04zm-15.07 0H685v-.95h10.06zm-15.08 0h-10.06v-.95h10.06zm-15.1 0h-10.04v-.95h10.05zm-15.07 0h-10.04v-.95h10.05zm-15.07 0h-10.06v-.95h10.06zm-15.08 0H609.6v-.95h10.05zm-15.1 0h-10.04v-.95h10.06zm-15.07 0h-10.06v-.95h10.06zm-15.08 0h-10.06v-.95h10.06zm-15.1 0h-5v-.95h5zm482.67 0h-.2v-.95h.2zm541.4-3.42h-5.04v-.95h5.03zm-10.07 0h-10.05v-.95h10.05zm-15.08 0h-10.06v-.95h10.06zm-15.08 0h-10.06v-.95h10.06zm-15.1 0H1518v-.95h10.05zm-15.07 0h-10.06v-.95h10.07zm-15.08 0h-10.07v-.95h10.06zm-15.1 0h-10.05v-.95h10.05zm-15.08 0h-10.06v-.95h10.06zm-15.08 0h-10.06v-.95h10.06zm-15.1 0h-10.04v-.95h10.05zm-15.07 0h-10.06v-.95h10.07zm-15.08 0h-10.07v-.95h10.06zm-15.1 0h-10.05v-.95h10.05zm-15.08 0h-10.06v-.95h10.06zm-15.08 0h-10.06v-.95h10.06zm-15.1 0h-10.04v-.95h10.06zm-15.07 0h-10.05v-.95h10.05zm-15.08 0h-10.07v-.95h10.06zm-15.1 0h-10.05v-.95h10.06zm-15.08 0h-10.05v-.95h10.05zm-15.08 0h-10.06v-.95h10.06zm-15.08 0h-10.06v-.95h10.06zm-15.1 0h-10.04v-.95h10.05zm-15.07 0h-10.07v-.95h10.06zm-15.1 0h-10.05v-.95h10.06zm-15.08 0h-10.05v-.95h10.05zm-15.08 0h-10.06v-.95h10.06zm-15.08 0H1156v-.95h10.06zm-15.1 0h-10.04v-.95h10.05zm-15.07 0h-10.07v-.95h10.06zm-15.1 0h-10.05v-.95h10.06zm-15.08 0h-10.05v-.95h10.05zm-15.08 0h-10.06v-.95h10.06z" stroke="#333" stroke-width=".05" fill="#333"/><path d="M1583.86 607.18h-.5v-.95h.5z" stroke="#333" stroke-width=".05" fill="#333"/><path d="M554.3 610.6h-.6l.17-.95h.43z" fill="#333"/><path stroke="#333" stroke-width=".05" fill="#333"/><use xlink:href="#t" transform="matrix(1,0,0,1,870.8208441755992,591.4544531982998) translate(0.0049999999999954525 24.888888888888893)"/><path d="M1078.3 696.62h-4.98l-.28.02-.25.07-.25.1-.22.14-.2.17-.17.2-.13.23-.1.24-.06.25-.03.3-.02.37-.1.38-.16.38-.2.35-.28.32-.3.27-.36.2-.37.16-.4.1-.4.02h-5v-.95h4.97l.28-.02.25-.05.24-.1.2-.13.2-.17.18-.2.13-.22.1-.24.07-.26.03-.3.03-.37.1-.4.15-.38.2-.35.28-.32.3-.26.36-.2.38-.17.4-.1.38-.03h5.02zm-19.26 4.26h-10v-.95h10zm-185.02 0h-5v-.95h5zm-10 0h-10v-.95h10zm-15 0h-10v-.95h10zm-15 0h-10v-.95h10zm-15 0h-10v-.95h10zm-15 0h-10v-.95h10zm-15 0h-10v-.95h10zm-15 0h-10v-.95h10zm-15 0h-10v-.95h10zm-15 0H734v-.95h10zm-15.02 0h-10v-.95h10zm-15 0h-10v-.95h10zm-15 0h-10v-.95h10zm-15 0h-10v-.95h10zm-15 0h-10v-.95h10zm-15 0h-10v-.95h10zm-15 0h-10v-.95h10zm-15 0h-10v-.95h10zm-15 0h-10v-.95h10zm-15 0h-10v-.95h10zm-15 0h-10v-.95h10zm-15 0h-5v-.95h5zm1019.36-4.26h-5v-.95h5zm-10 0h-10v-.95h10zm-15 0h-10v-.95h10zm-15 0h-10v-.95h10zm-15 0h-10v-.95h10zm-15 0h-10v-.95h10zm-15 0h-10v-.95h10zm-15 0h-10v-.95h10zm-15 0h-10.02v-.95h10zm-15.02 0h-10v-.95h10zm-15 0h-10v-.95h10zm-15 0h-10v-.95h10zm-15 0h-10v-.95h10zm-15 0h-10v-.95h10zm-15 0h-10v-.95h10zm-15 0h-10v-.95h10zm-15 0h-10v-.95h10zm-15 0h-10v-.95h10zm-15 0h-10v-.95h10zm-15 0h-10v-.95h10zm-15 0h-10v-.95h10zm-15.02 0h-10v-.95h10zm-15 0h-10v-.95h10zm-15 0h-10v-.95h10zm-15 0h-10v-.95h10zm-15 0h-10v-.95h10zm-15 0h-10v-.95h10zm-15 0h-10v-.95h10zm-15 0h-10v-.95h10zm-15 0h-10v-.95h10zm-15 0h-10v-.95h10zm-15 0h-10v-.95h10zm-15 0h-10v-.95h10zm-15 0h-10.02v-.95h10z" stroke="#333" stroke-width=".05" fill="#333"/><path d="M1583.86 696.62h-.5v-.95h.5z" stroke="#333" stroke-width=".05" fill="#333"/><path d="M559 700.9h-.96l.82-.9.14-.07z" fill="#333"/><path stroke="#333" stroke-width=".05" fill="#333"/><use xlink:href="#t" transform="matrix(1,0,0,1,874.0195479531195,681.7433399667485) translate(0.0049999999999954525 24.888888888888893)"/><path d="M1081.53 795.7h-5.3l-.32.1-.3.12-.28.17-.26.2-.2.26-.2.3-.12.3-.07.32-.03.37-.04.44-.1.46-.2.45-.25.42-.3.37-.38.3-.4.25-.45.2-.47.1-.47.03h-4.98v-.95h4.95l.35-.02.32-.07.3-.13.3-.17.25-.22.2-.24.2-.3.1-.3.1-.32.02-.37.03-.44.1-.47.2-.45.25-.4.3-.37.38-.3.4-.26.45-.2.48-.1.47-.03h4.98zm-20.1 5.18h-9.94v-.95h9.93zm-183.64 0h-5.18v-.95h5.17zm-10.15 0h-9.93v-.95h9.93zm-14.9 0h-9.94v-.95h9.95zm-14.9 0h-9.94v-.95h9.94zm-14.9 0H813v-.95h9.94zm-14.92 0h-9.94v-.95h9.93zm-14.9 0h-9.94v-.95h9.93zm-14.9 0h-9.95v-.95h9.94zm-14.92 0h-9.92v-.95h9.93zm-14.9 0h-9.93v-.95h9.94zm-14.9 0h-9.93v-.95h9.93zm-14.9 0h-9.94v-.95h9.94zm-14.9 0h-9.95v-.95h9.94zm-14.9 0h-9.95v-.95h9.94zm-14.92 0h-9.94v-.95h9.94zm-14.9 0h-9.94v-.95h9.93zm-14.9 0h-9.95v-.95h9.94zm-14.92 0h-9.93v-.95h9.93zm-14.9 0h-9.94v-.95h9.94zm-14.9 0h-9.95v-.95h9.95zm-14.9 0h-9.95v-.95h9.95zm-14.92 0h-4.97v-.95h4.97zm1013.82-5.2h-4.97v-.94h4.96zm-9.94 0h-9.94v-.94h9.94zm-14.9 0h-9.94v-.94h9.94zm-14.9 0h-9.95v-.94h9.94zm-14.92 0h-9.93v-.94h9.93zm-14.9 0h-9.94v-.94h9.94zm-14.9 0h-9.95v-.94h9.94zm-14.9 0h-9.95v-.94h9.94zm-14.92 0h-9.94v-.94h9.94zm-14.9 0h-9.94v-.94h9.93zm-14.9 0h-9.95v-.94h9.94zm-14.92 0h-9.93v-.94h9.93zm-14.9 0h-9.94v-.94h9.94zm-14.9 0h-9.94v-.94h9.93zm-14.9 0h-9.95v-.94h9.95zm-14.92 0h-9.94v-.94h9.94zm-14.9 0h-9.94v-.94h9.93zm-14.9 0h-9.95v-.94h9.93zm-14.92 0h-9.93v-.94h9.92zm-14.9 0h-9.94v-.94h9.94zm-14.9 0h-9.94v-.94h9.93zm-14.9 0h-9.95v-.94h9.94zm-14.92 0h-9.94v-.94h9.94zm-14.9 0h-9.94v-.94h9.93zm-14.9 0h-9.95v-.94h9.94zm-14.92 0h-9.93v-.94h9.93zm-14.9 0h-9.94v-.94h9.94zm-14.9 0h-9.94v-.94h9.93zm-14.9 0h-9.95v-.94h9.94zm-14.92 0h-9.94v-.94h9.94zm-14.9 0h-9.94v-.94h9.94zm-14.9 0h-9.95v-.94h9.95zm-14.92 0h-9.93v-.94h9.94zm-14.9 0h-9.94v-.94h9.94z" stroke="#333" stroke-width=".05" fill="#333"/><path d="M1583.86 795.7h-.5v-.96h.5z" stroke="#333" stroke-width=".05" fill="#333"/><path d="M564.6 800.9h-.6l.07-.43.05-.54h.47z" fill="#333"/><path stroke="#333" stroke-width=".05" fill="#333"/><use xlink:href="#t" transform="matrix(1,0,0,1,877.7954548111137,781.7433399667489) translate(0.0049999999999954525 24.888888888888893)"/><path d="M129.88 900.9h-5.02v-.97h5.02zm15.08 0H134.9v-.97h10.06zm15.07 0h-10.05v-.97h10.05zm15.07 0h-10.05v-.97h10.05zm15.07 0h-10.04v-.97h10.04zm15.08 0H195.2v-.97h10.05zm15.07 0h-10.05v-.97h10.05zm15.07 0h-10.06v-.97h10.05zm15.06 0h-10.04v-.97h10.05zm15.08 0H255.5v-.97h10.04zm15.07 0h-10.04v-.97h10.05zm15.08 0h-10.05v-.97h10.05zm15.08 0H300.7v-.97h10.06zm15.07 0h-10.05v-.97h10.05zm15.07 0h-10.05v-.97h10.05zm15.08 0h-10.05v-.97h10.05zm15.07 0H361v-.97h10.05zm15.07 0h-10.05v-.97h10.05zm15.07 0h-10.05v-.97h10.05zm15.07 0h-10.05v-.97h10.05zm15.07 0H421.3v-.97h10.04zm15.07 0h-10.03v-.97h10.04zm15.1 0h-10.06v-.97h10.05zm15.06 0H466.5v-.97h10.06zm15.07 0h-10.05v-.97h10.05zm15.07 0h-10.04v-.97h10.04zm15.08 0h-10.05v-.97h10.05zm15.07 0H526.8v-.97h10.05zm15.07 0h-10.04v-.97h10.04zm15.08 0h-10.05v-.97H567zm15.07 0h-10.05v-.97h10.05zm15.07 0H587.1v-.97h10.04zm15.08 0h-10.05v-.97h10.05zm15.07 0h-10.06v-.97h10.05zm15.06 0H632.3v-.97h10.06zm15.07 0H647.4v-.97h10.03zm15.08 0h-10.04v-.97h10.05zm15.08 0h-10.05v-.97h10.05zm15.07 0H692.6v-.97h10.05zm15.08 0h-10.05v-.97h10.05zm15.07 0h-10.05v-.97h10.05zm14.33 0h-9.3v-.97h9.3zm181.62 0H918.7v-.97h10.05zm15.07 0h-10.05v-.97h10.05zm15.07 0h-10.06v-.97h10.05zm15.07 0h-10.05v-.97h10.05zm15.07 0H979v-.97h10.04zm15.07 0h-10.04v-.97h10.05zm15.08 0h-10.04v-.97h10.04zm15.08 0h-10.05v-.97h10.06zm15.07 0h-10.05v-.97h10.05zm15.07 0h-10.05v-.97h10.05zm15.08 0h-10.05v-.97h10.05zm15.07 0h-10.05v-.97h10.05zm15.07 0h-10.05v-.97h10.05zm15.07 0h-10.05v-.97h10.04zm15.07 0h-10.05v-.97h10.05zm15.07 0h-10.05v-.97h10.04zm15.07 0h-10.04v-.97h10.05zm15.1 0h-10.06v-.97H1185zm15.06 0H1190v-.97h10.06zm15.07 0h-10.05v-.97h10.05zm15.07 0h-10.04v-.97h10.04zm15.08 0h-10.05v-.97h10.05zm15.07 0h-10.05v-.97h10.05zm15.07 0h-10.05v-.97h10.05zm15.08 0h-10.05v-.97h10.05zm15.07 0h-10.05v-.97h10.05zm15.07 0h-10.05v-.97h10.04zm15.07 0h-10.03v-.97h10.04zm15.1 0h-10.06v-.97h10.05zm15.06 0h-10.05v-.97h10.06zm15.07 0h-10.05v-.97h10.05zm15.08 0h-10.04v-.97H1396zm15.08 0h-10.05v-.97h10.05zm15.07 0h-10.05v-.97h10.05zm15.08 0h-10.05v-.97h10.05zm15.07 0h-10.05v-.97h10.05zm15.07 0h-10.05v-.97h10.05zm15.07 0h-10.04v-.97h10.04zm15.08 0h-10.05v-.97h10.05zm15.07 0h-10.06v-.97h10.05zm15.06 0h-10.05l.02-.97h10.04zm15.08 0h-10.05v-.97h10.04zm15.07 0h-10.04v-.97h10.05zm16.3-1.72l-.58.35-1.8.75-1.9.45-1.94.15h-5.05v-.95h5l1.83-.14 1.76-.43 1.67-.7.5-.3zm6.23-10.75l-.15 1.93-.46 1.9-.75 1.8-.34.58-.8-.5.3-.5.7-1.67.4-1.76.15-1.8v-5.03h.95zm0-10.1h-.95v-10.1h.95zm0-15.14h-.95v-10.1h.95zm0-15.15h-.95v-10.1h.95zm0-15.13h-.95v-10.1h.95zm0-15.13h-.95v-10.1h.95zm0-15.15h-.95v-10.1h.95zm0-15.13h-.95v-10.1h.95zm0-15.13h-.95v-10.1h.95zm0-15.15h-.95v-10.1h.95zm0-15.13h-.95v-10.1h.95zm0-15.14h-.95v-10.1h.95zm0-15.13h-.95v-10.1h.95zm0-15.13h-.95v-10.1h.95zm0-15.14h-.95v-10.1h.95zm0-15.13h-.95v-10.1h.95zm0-15.13h-.95v-10.1h.95zm0-15.14h-.95v-10.1h.95zm0-15.13h-.95v-10.1h.95zm0-15.13h-.95v-10.1h.95zm0-15.14h-.95v-10.1h.95zm0-15.13h-.95v-10.1h.95zm0-15.14h-.95v-10.08h.95zm0-15.12h-.95v-10.1h.95zm0-15.13h-.95v-10.1h.95zm0-15.14h-.95v-10.08h.95zm0-15.12h-.95v-10.1h.95zm0-15.13h-.95v-10.1h.95zm0-15.14h-.95v-10.08h.95zm0-15.12h-.95v-10.1h.95zm0-15.14h-.95v-10.08h.95zm0-15.13h-.95v-10.08h.95zm0-15.12h-.95v-10.1h.95zm0-15.14h-.95v-10.1h.95zm0-15.13h-.95v-10.08h.95zm0-15.12h-.95v-10.1h.95zm0-15.14h-.95v-10.1h.95zm0-15.13h-.95v-10.08h.95zm0-15.13h-.95V308.3h.95zm0-15.13h-.95v-10.1h.95zm0-15.13h-.95v-10.08h.95zm0-15.13h-.95v-10.1h.95zm0-15.13h-.95v-10.1h.95zm0-15.13h-.95v-10.08h.95zm0-15.13h-.95v-10.1h.95zm0-15.13h-.95v-10.1h.95zm0-15.13h-.95v-10.08h.95zm0-15.13h-.95v-10.1h.95zm0-15.13h-.95v-10.1h.95zm0-15.14h-.95v-10.1h.95zm0-15.13h-.95v-10.1h.95zm0-15.13h-.95v-10.1h.95zm0-15.14h-.95v-5.04h.95z" stroke="#333" stroke-width=".05" fill="#333"/><path d="M124.87 900.9h-.53l.02-.48v-.4l.5-.1z" fill="#333"/><path stroke="#333" stroke-width=".05" fill="#333"/><path d="M1591.36 100.96h-15l7.5-13z" fill="#333"/><path d="M1592.18 101.43h-16.64l8.32-14.4zm-15-.95h13.36l-6.68-11.56z" stroke="#333" stroke-width=".05" fill="#333"/><use xlink:href="#t" transform="matrix(1,0,0,1,747.1325610081775,881.7433399667487) translate(0.0049999999999954525 24.888888888888893)"/><path d="M724.36 502.17c0 26.9-31.45 48.7-70.25 48.7s-70.24-21.8-70.24-48.7c0-26.9 31.45-48.7 70.25-48.7s70.26 21.8 70.26 48.7z" stroke="#000" fill="#4d9eff"/><use xlink:href="#u" transform="matrix(1,0,0,1,604.9326929511873,472.9502561836886) translate(25.025 33.1)"/><path d="M724.36 390c0 30.02-31.45 54.35-70.25 54.35s-70.24-24.33-70.24-54.35c0-30.02 31.45-54.36 70.25-54.36s70.26 24.34 70.26 54.36z" stroke="#000" fill="#4d9eff"/><use xlink:href="#v" transform="matrix(1,0,0,1,604.9326929511873,357.38641832783986) translate(18.525 36.6)"/><path d="M724.36 272.18c0 30-31.45 54.35-70.25 54.35s-70.24-24.34-70.24-54.35c0-30.02 31.45-54.36 70.25-54.36s70.26 24.34 70.26 54.36z" stroke="#000" fill="#4d9eff"/><use xlink:href="#w" transform="matrix(1,0,0,1,604.9326929511873,239.56383785584867) translate(15.5 36.6)"/><path d="M563.86 686.7c0 18.62-31.34 33.7-70 33.7s-70-15.08-70-33.7c0-18.6 31.34-33.7 70-33.7s70 15.1 70 33.7z" stroke="#000" fill="#4d9eff"/><use xlink:href="#u" transform="matrix(1,0,0,1,444.8576923076921,666.4799475625392) translate(24.525 24.1)"/><path d="M138.85 340.4h4.5m4.5 0h4.5l1.9.16 1.82.44 1.74.72.54.33m4.38 4.38l.33.53.72 1.74.44 1.83.16 1.88v4.84m0 4.84v9.66m0 4.84v9.66m0 4.84v9.66m0 4.84v9.66m0 4.84v9.66m0 4.84v9.66m0 4.84v9.66m0 4.84v4.83l-.15 1.9-.43 1.82-.72 1.74-.33.53m-4.38 4.37l-.53.33-1.73.72-1.83.44-1.88.15h-4.5m-4.5 0h-4.5" stroke="#333" fill="none"/><path d="M125.36 340.4l13-7.5v15zM125.36 480.4l13-7.5v15z" stroke="#333" fill="#333"/><path d="M158.6 759.18l-.58.35-1.8.75-1.9.45-1.94.15h-4.53v-.95h4.5l1.8-.14 1.77-.43 1.67-.7.5-.3zm-15.25 1.7h-4.5v-.95h4.5zm21.48-12.45l-.15 1.93-.46 1.9-.75 1.8-.34.58-.8-.5.3-.5.7-1.67.4-1.76.15-1.8v-4.82h.95zm0-9.7h-.95v-9.65h.95zm0-14.5h-.95v-9.65h.95zm0-14.5h-.95v-9.65h.95zm0-43.5h-.95v-9.65h.95zm0-14.5h-.95v-9.65h.95zm-1.36-24.98l.75 1.8.46 1.9.15 1.94v4.84h-.95v-4.8l-.14-1.83-.42-1.75-.7-1.67-.3-.5.8-.5zm-9.16-6.66l1.9.44 1.82.75.57.34-.5.8-.5-.3-1.68-.7-1.76-.4-1.82-.15h-4.5v-.97h4.54zm-10.95.78h-4.5v-.95h4.5z" stroke="#333" stroke-width=".05" fill="#333"/><path d="M138.35 627.9l-13-7.5 13-7.5z" fill="#333"/><path d="M138.82 628.73l-14.4-8.32 14.4-8.3zm-12.5-8.32l11.55 6.7v-13.37z" stroke="#333" stroke-width=".05" fill="#333"/><path d="M138.35 767.9l-13-7.5 13-7.5z" fill="#333"/><path d="M138.82 768.73l-14.4-8.32 14.4-8.3zm-12.5-8.32l11.55 6.7v-13.37zM368.1 391.65l-.58.35-1.8.75-1.9.45-1.94.16h-5.07v-.96h5.04l1.82-.14 1.76-.42 1.67-.7.5-.3zm-16.35 1.7h-10.1v-.95h10.1zm-15.15 0h-10.1v-.95h10.1zm-15.15 0h-10.1v-.95h10.1zm-138.42 0h-8.07v-.95h8.07zm-13.12 0h-5.04v-.95h5.05zm136.4 0h-3.57v-.95h3.56zm68.03-12.45l-.15 1.93-.46 1.9-.75 1.8-.34.58-.8-.5.3-.5.7-1.66.4-1.76.15-1.82v-5.35h.95zm0-10.76h-.95V359.4h.95zm0-16.12h-.95v-10.75h.95zm0-16.12h-.95v-10.75h.95zm0-16.12h-.95v-10.74h.95zm0-16.1h-.95V294.9h.95zm1.57-27.24l-.3.5-.7 1.68-.42 1.75-.15 1.82v5.35h-.95v-5.4l.16-1.93.45-1.9.74-1.8.35-.58zm15-5.8h-5.02l-1.82.15-1.76.42-1.67.7-.5.3-.5-.8.56-.36 1.8-.75 1.9-.45 1.94-.15h5.07zm191.96 0h-5.05v-.94h5.06zm-10.1 0h-10.1v-.94h10.1zm-15.16 0h-10.1v-.94h10.1zm-15.15 0h-10.1v-.94h10.1zm-15.16 0h-10.1v-.94h10.1zm-15.16 0h-10.1v-.94h10.1zm-15.15 0h-10.12v-.94h10.1zm-15.17 0h-10.1v-.94h10.1zm-15.15 0h-10.1v-.94h10.1zm-15.16 0h-10.1v-.94h10.1zm-15.15 0h-10.1v-.94h10.1zm-15.15 0h-10.1v-.94h10.1zm-15.16 0h-10.1v-.94h10.1z" stroke="#333" stroke-width=".05" fill="#333"/><path d="M583.36 272.17v.48h-.5v-.95h.5z" fill="#333"/><path stroke="#333" stroke-width=".05" fill="#333"/><path d="M164.87 393.36h-.5v-.96h.5zM381.16 390.47h-4.9l-.32.03-.3.07-.26.1-.26.17-.23.2-.2.22-.16.25-.1.3-.08.28-.03.34-.03.4-.1.44-.18.42-.23.38-.3.34-.34.3-.4.23-.4.17-.44.1-.43.04h-4.94v-.95h4.9l.3-.04.3-.07.28-.12.26-.16.22-.2.2-.22.15-.25.12-.28.06-.3.02-.33.04-.4.1-.44.17-.42.23-.38.3-.34.33-.3.38-.23.42-.17.43-.1.42-.04h4.94zm-19.52 4.77h-9.84v-.95h9.84zm-14.76 0h-9.84v-.95h9.84zm-14.76 0h-9.84v-.95h9.84zm-14.76 0h-9.84v-.95h9.84zm-134.33 0h-8.33v-.95h8.33zm-13.25 0h-4.92v-.95h4.92zm413.08-4.77h-4.92v-.95h4.92zm-9.84 0h-9.84v-.95h9.84zm-14.76 0h-9.84v-.95h9.84zm-14.76 0h-9.84v-.95h9.84zm-14.76 0h-9.84v-.95h9.84zm-14.75 0h-9.85v-.95H514zm-14.77 0h-9.84v-.95h9.83zm-14.76 0h-9.84v-.95h9.84zm-14.76 0h-9.83v-.95h9.84zm-14.75 0h-9.84v-.95h9.85zm-14.76 0h-9.85v-.95h9.84zm-14.76 0h-9.84v-.95h9.83zm-14.76 0h-9.84v-.95h9.84zm-14.76 0h-9.84v-.95h9.84z" stroke="#333" stroke-width=".05" fill="#333"/><path d="M583.36 390v.47h-.5v-.95h.5z" fill="#333"/><path stroke="#333" stroke-width=".05" fill="#333"/><path d="M164.87 395.24h-.5v-.95h.5zM582.86 502.65h-5.05v-.95h5.06zm-10.1 0h-10.1v-.95h10.1zm-15.16 0h-10.1v-.95h10.1zm-15.15 0h-10.1v-.95h10.1zm-15.16 0h-10.1v-.95h10.1zm-15.16 0h-10.1v-.95h10.1zm-15.15 0h-10.12v-.95h10.1zm-15.17 0h-10.1v-.95h10.1zm-15.15 0h-10.1v-.95h10.1zm-15.16 0h-10.1v-.95h10.1zm-15.15 0h-10.1v-.95h10.1zm-15.15 0h-10.1v-.95h10.1zm-15.16 0h-10.1v-.95h10.1zm-25.43-2.2l1.67.68 1.75.43 1.83.14h5.03v.95h-5.06l-1.93-.15-1.9-.46-1.8-.75-.57-.36.5-.8zm-6.3-10.3l.15 1.83.42 1.75.7 1.68.3.5-.8.5-.36-.56-.75-1.8-.46-1.9-.16-1.95v-4.76h.95zm0-9.45h-.95v-9.48h.95zm0-14.22h-.95V457h.95zm0-14.2h-.95v-9.5h.95zm0-14.23h-.95v-9.48h.95zm0-14.22h-.95v-9.47h.95zm-1.36-24.6l.75 1.8.46 1.9.15 1.93v4.76h-.95v-4.72l-.14-1.82-.42-1.76-.7-1.67-.3-.5.8-.5zm-9.16-6.67l1.9.45 1.82.76.57.35-.5.82-.5-.3-1.68-.7-1.76-.42-1.82-.14h-5.03v-.96h5.08zm-12.05.8h-10.1v-.96h10.1zm-15.15 0h-10.1v-.96h10.1zm-15.15 0h-10.1v-.96h10.1zm-138.42 0h-8.07v-.96h8.07zm-13.12 0h-5.04v-.96h5.05zm136.4 0h-3.57v-.96h3.56z" stroke="#333" stroke-width=".05" fill="#333"/><path d="M583.36 502.17V502.65h-.5v-.95h.5z" fill="#333"/><path stroke="#333" stroke-width=".05" fill="#333"/><path d="M164.87 393.36h-.5v-.96h.5z" stroke="#333" stroke-width=".05" fill="#333"/><use xlink:href="#x" transform="matrix(1,0,0,1,183.02724632468903,379.4134937376157) translate(0.005000000000002558 17.955555555555552)"/><path d="M422.86 687.18h-5.06v-.95h5.06zm-10.12 0h-10.12v-.95h10.12zm-15.18 0h-10.1v-.95h10.1zm-15.17 0h-10.13v-.95h10.12zm-15.2 0h-10.1v-.95h10.1zm-15.17 0h-10.1v-.95h10.1zm-15.17 0h-10.12v-.95h10.12zm-15.18 0h-10.12v-.95h10.12zm-15.18 0h-10.1v-.95h10.1zm-15.17 0H281.2v-.95h10.13z" stroke="#333" stroke-width=".05" fill="#333"/><path d="M423.36 686.7v.48h-.5v-.95h.5z" fill="#333"/><path stroke="#333" stroke-width=".05" fill="#333"/><path stroke="#333" stroke-width=".05" fill="#333"/><path d="M282.7 683.7l-.55.33-1.14.48v-1.02l.72-.3.5-.3zm6.26-10.76l-.15 1.93-.45 1.9-.75 1.8-.35.58-.8-.5.3-.5.7-1.67.42-1.76.14-1.82v-4.5h.96zm0-9.06H288v-9.03h.96zm0-13.55H288v-9.04h.96zm0-13.56H288v-9.03h.96zm1.56-23.8l-.3.5-.7 1.67-.42 1.76-.14 1.82v4.5H288v-4.54l.16-1.93.46-1.9.75-1.8.34-.58zm15.28-5.8h-5.3l-1.82.15-1.76.42-1.67.7-.5.3-.5-.8.57-.35 1.8-.76 1.9-.46 1.95-.15h5.33zm106.3 0h-5.3v-.94h5.3zm-10.62 0h-10.63v-.94h10.63zm-15.95 0H374.9v-.94h10.63zm-15.94 0h-10.65v-.94h10.64zm-15.96 0H343v-.94h10.64zm-15.95 0h-10.64v-.94h10.63zm-15.95 0h-10.63v-.94h10.63z" stroke="#333" stroke-width=".05" fill="#333"/><path d="M412.6 606.8l.02.38h-.52v-.95h.53z" fill="#333"/><path stroke="#333" stroke-width=".05" fill="#333"/><path stroke="#333" stroke-width=".05" fill="#333"/><path d="M422.86 796.86h-4.88v-.96h4.88zm-9.75 0h-9.74v-.96h9.75zm-14.62 0h-9.75v-.96h9.75zm-14.62 0h-9.75v-.96h9.76zm-14.63 0h-9.75v-.96h9.75zm-14.62 0h-9.74v-.96h9.75zm-14.62 0h-9.75v-.96h9.75zm-14.62 0h-9.75v-.96h9.76zm-24.73-2.2l1.67.68 1.75.42 1.83.14h4.85v.96h-4.9l-1.92-.16-1.9-.45-1.8-.75-.57-.35.5-.8zm-6.3-10.3l.15 1.82.42 1.76.7 1.67.3.5-.8.5-.36-.56-.75-1.8-.46-1.9-.16-1.94v-5.17h.95zm0-10.28h-.95v-10.3h.95zm0-15.44h-.95v-10.3h.95zm0-15.45h-.95v-10.3h.95zm0-15.46h-.95v-10.3h.95zm0-15.44h-.95V702h.95zM289.6 678l2.5 1.2 1.38 2.1 2.15.2 2.45 1.7 1.22 2.78-.25 2.5-1.68 2.45-2.75 1.2-.3.03v4.7h-.94v-5.62l.77-.02.23-.02 2.36-1.04 1.4-2.02.2-2-1.02-2.32-2.03-1.4-2.36-.22-1.5-2.25-2.1-1.02-.8-.07-2.72.88-1.63 2.24-.3 1.87H281v-.95h2.08l.2-1.3 1.96-2.67 3.2-1.04z" stroke="#333" stroke-width=".05" fill="#333"/><path d="M423.36 796.38v.48h-.5v-.96h.5z" fill="#333"/><path stroke="#333" stroke-width=".05" fill="#333"/><path stroke="#333" stroke-width=".05" fill="#333"/><g><use xlink:href="#y" transform="matrix(1,0,0,1,150.6410600115167,668.7060636798373) translate(0.0049999999999954525 19.555555555555557)"/></g><defs><path d="M169-182c-1-43-94-46-97-3 18 66 151 10 154 114 3 95-165 93-204 36-6-8-10-19-12-30l50-8c3 46 112 56 116 5-17-69-150-10-154-114-4-87 153-88 188-35 5 8 8 18 10 28" id="z"/><path d="M123 10C108 53 80 86 19 72V37c35 8 53-11 59-39L3-190h52l48 148c12-52 28-100 44-148h51" id="A"/><path d="M137-138c1-29-70-34-71-4 15 46 118 7 119 86 1 83-164 76-172 9l43-7c4 19 20 25 44 25 33 8 57-30 24-41C81-84 22-81 20-136c-2-80 154-74 161-7" id="B"/><path d="M115-3C79 11 28 4 28-45v-112H4v-33h27l15-45h31v45h36v33H77v99c-1 23 16 31 38 25v30" id="C"/><path d="M185-48c-13 30-37 53-82 52C43 2 14-33 14-96s30-98 90-98c62 0 83 45 84 108H66c0 31 8 55 39 56 18 0 30-7 34-22zm-45-69c5-46-57-63-70-21-2 6-4 13-4 21h74" id="D"/><path d="M220-157c-53 9-28 100-34 157h-49v-107c1-27-5-49-29-50C55-147 81-57 75 0H25l-1-190h47c2 12-1 28 3 38 10-53 101-56 108 0 13-22 24-43 59-42 82 1 51 116 57 194h-49v-107c-1-25-5-48-29-50" id="E"/><g id="a"><use transform="matrix(0.08641975308641976,0,0,0.08641975308641976,0,0)" xlink:href="#z"/><use transform="matrix(0.08641975308641976,0,0,0.08641975308641976,20.740740740740744,0)" xlink:href="#A"/><use transform="matrix(0.08641975308641976,0,0,0.08641975308641976,38.0246913580247,0)" xlink:href="#B"/><use transform="matrix(0.08641975308641976,0,0,0.08641975308641976,55.308641975308646,0)" xlink:href="#C"/><use transform="matrix(0.08641975308641976,0,0,0.08641975308641976,65.5925925925926,0)" xlink:href="#D"/><use transform="matrix(0.08641975308641976,0,0,0.08641975308641976,82.87654320987654,0)" xlink:href="#E"/></g><path d="M135-194c53 0 70 44 70 98 0 56-19 98-73 100-31 1-45-17-59-34 3 33 2 69 2 105H25l-1-265h48c2 10 0 23 3 31 11-24 29-35 60-35zM114-30c33 0 39-31 40-66 0-38-9-64-40-64-56 0-55 130 0 130" id="F"/><path d="M25 0v-261h50V0H25" id="G"/><path d="M133-34C117-15 103 5 69 4 32 3 11-16 11-54c-1-60 55-63 116-61 1-26-3-47-28-47-18 1-26 9-28 27l-52-2c7-38 36-58 82-57s74 22 75 68l1 82c-1 14 12 18 25 15v27c-30 8-71 5-69-32zm-48 3c29 0 43-24 42-57-32 0-66-3-65 30 0 17 8 27 23 27" id="H"/><path d="M121-226c-27-7-43 5-38 36h38v33H83V0H34v-157H6v-33h28c-9-59 32-81 87-68v32" id="I"/><path d="M110-194c64 0 96 36 96 99 0 64-35 99-97 99-61 0-95-36-95-99 0-62 34-99 96-99zm-1 164c35 0 45-28 45-65 0-40-10-65-43-65-34 0-45 26-45 65 0 36 10 65 43 65" id="J"/><path d="M135-150c-39-12-60 13-60 57V0H25l-1-190h47c2 13-1 29 3 40 6-28 27-53 61-41v41" id="K"/><g id="b"><use transform="matrix(0.08641975308641976,0,0,0.08641975308641976,0,0)" xlink:href="#F"/><use transform="matrix(0.08641975308641976,0,0,0.08641975308641976,18.925925925925927,0)" xlink:href="#G"/><use transform="matrix(0.08641975308641976,0,0,0.08641975308641976,27.567901234567906,0)" xlink:href="#H"/><use transform="matrix(0.08641975308641976,0,0,0.08641975308641976,44.85185185185187,0)" xlink:href="#C"/><use transform="matrix(0.08641975308641976,0,0,0.08641975308641976,55.13580246913581,0)" xlink:href="#D"/><use transform="matrix(0.08641975308641976,0,0,0.08641975308641976,72.41975308641976,0)" xlink:href="#I"/><use transform="matrix(0.08641975308641976,0,0,0.08641975308641976,82.70370370370371,0)" xlink:href="#J"/><use transform="matrix(0.08641975308641976,0,0,0.08641975308641976,101.62962962962963,0)" xlink:href="#K"/><use transform="matrix(0.08641975308641976,0,0,0.08641975308641976,113.7283950617284,0)" xlink:href="#E"/><use transform="matrix(0.08641975308641976,0,0,0.08641975308641976,141.38271604938274,0)" xlink:href="#D"/></g><path d="M88-194c31-1 46 15 58 34l-1-101h50l1 261h-48c-2-10 0-23-3-31C134-8 116 4 84 4 32 4 16-41 15-95c0-56 19-97 73-99zm17 164c33 0 40-30 41-66 1-37-9-64-41-64s-38 30-39 65c0 43 13 65 39 65" id="L"/><g id="c"><use transform="matrix(0.08641975308641976,0,0,0.08641975308641976,0,0)" xlink:href="#L"/><use transform="matrix(0.08641975308641976,0,0,0.08641975308641976,18.925925925925927,0)" xlink:href="#D"/></g><path d="M190-63c-7 42-38 67-86 67-59 0-84-38-90-98-12-110 154-137 174-36l-49 2c-2-19-15-32-35-32-30 0-35 28-38 64-6 74 65 87 74 30" id="M"/><path d="M85 4C-2 5 27-109 22-190h50c7 57-23 150 33 157 60-5 35-97 40-157h50l1 190h-47c-2-12 1-28-3-38-12 25-28 42-61 42" id="N"/><g id="d"><use transform="matrix(0.08641975308641976,0,0,0.08641975308641976,0,0)" xlink:href="#M"/><use transform="matrix(0.08641975308641976,0,0,0.08641975308641976,17.283950617283953,0)" xlink:href="#J"/><use transform="matrix(0.08641975308641976,0,0,0.08641975308641976,36.20987654320988,0)" xlink:href="#N"/><use transform="matrix(0.08641975308641976,0,0,0.08641975308641976,55.13580246913581,0)" xlink:href="#K"/><use transform="matrix(0.08641975308641976,0,0,0.08641975308641976,67.23456790123458,0)" xlink:href="#B"/></g><path d="M135-194c87-1 58 113 63 194h-50c-7-57 23-157-34-157-59 0-34 97-39 157H25l-1-190h47c2 12-1 28 3 38 12-26 28-41 61-42" id="O"/><g id="e"><use transform="matrix(0.08641975308641976,0,0,0.08641975308641976,0,0)" xlink:href="#D"/><use transform="matrix(0.08641975308641976,0,0,0.08641975308641976,17.283950617283953,0)" xlink:href="#O"/></g><path d="M25-224v-37h50v37H25zM25 0v-190h50V0H25" id="P"/><path d="M195-6C206 82 75 100 31 46c-4-6-6-13-8-21l49-6c3 16 16 24 34 25 40 0 42-37 40-79-11 22-30 35-61 35-53 0-70-43-70-97 0-56 18-96 73-97 30 0 46 14 59 34l2-30h47zm-90-29c32 0 41-27 41-63 0-35-9-62-40-62-32 0-39 29-40 63 0 36 9 62 39 62" id="Q"/><g id="f"><use transform="matrix(0.08641975308641976,0,0,0.08641975308641976,0,0)" xlink:href="#G"/><use transform="matrix(0.08641975308641976,0,0,0.08641975308641976,8.641975308641976,0)" xlink:href="#P"/><use transform="matrix(0.08641975308641976,0,0,0.08641975308641976,17.283950617283953,0)" xlink:href="#Q"/><use transform="matrix(0.08641975308641976,0,0,0.08641975308641976,36.20987654320988,0)" xlink:href="#O"/><use transform="matrix(0.08641975308641976,0,0,0.08641975308641976,55.13580246913581,0)" xlink:href="#D"/></g><path fill="#3a414a" d="M210-169c-67 3-38 105-44 169h-31v-121c0-29-5-50-35-48C34-165 62-65 56 0H25l-1-190h30c1 10-1 24 2 32 10-44 99-50 107 0 11-21 27-35 58-36 85-2 47 119 55 194h-31v-121c0-29-5-49-35-48" id="R"/><path fill="#3a414a" d="M141-36C126-15 110 5 73 4 37 3 15-17 15-53c-1-64 63-63 125-63 3-35-9-54-41-54-24 1-41 7-42 31l-33-3c5-37 33-52 76-52 45 0 72 20 72 64v82c-1 20 7 32 28 27v20c-31 9-61-2-59-35zM48-53c0 20 12 33 32 33 41-3 63-29 60-74-43 2-92-5-92 41" id="S"/><path fill="#3a414a" d="M117-194c89-4 53 116 60 194h-32v-121c0-31-8-49-39-48C34-167 62-67 57 0H25l-1-190h30c1 10-1 24 2 32 11-22 29-35 61-36" id="T"/><path fill="#3a414a" d="M177-190C167-65 218 103 67 71c-23-6-38-20-44-43l32-5c15 47 100 32 89-28v-30C133-14 115 1 83 1 29 1 15-40 15-95c0-56 16-97 71-98 29-1 48 16 59 35 1-10 0-23 2-32h30zM94-22c36 0 50-32 50-73 0-42-14-75-50-75-39 0-46 34-46 75s6 73 46 73" id="U"/><path fill="#3a414a" d="M100-194c63 0 86 42 84 106H49c0 40 14 67 53 68 26 1 43-12 49-29l28 8c-11 28-37 45-77 45C44 4 14-33 15-96c1-61 26-98 85-98zm52 81c6-60-76-77-97-28-3 7-6 17-6 28h103" id="V"/><g id="g"><use transform="matrix(0.05,0,0,0.05,0,0)" xlink:href="#R"/><use transform="matrix(0.05,0,0,0.05,14.950000000000001,0)" xlink:href="#S"/><use transform="matrix(0.05,0,0,0.05,24.950000000000003,0)" xlink:href="#T"/><use transform="matrix(0.05,0,0,0.05,34.95,0)" xlink:href="#S"/><use transform="matrix(0.05,0,0,0.05,44.95,0)" xlink:href="#U"/><use transform="matrix(0.05,0,0,0.05,54.95,0)" xlink:href="#V"/></g><path fill="#3a414a" d="M59-47c-2 24 18 29 38 22v24C64 9 27 4 27-40v-127H5v-23h24l9-43h21v43h35v23H59v120" id="W"/><path fill="#3a414a" d="M96-169c-40 0-48 33-48 73s9 75 48 75c24 0 41-14 43-38l32 2c-6 37-31 61-74 61-59 0-76-41-82-99-10-93 101-131 147-64 4 7 5 14 7 22l-32 3c-4-21-16-35-41-35" id="X"/><path fill="#3a414a" d="M106-169C34-169 62-67 57 0H25v-261h32l-1 103c12-21 28-36 61-36 89 0 53 116 60 194h-32v-121c2-32-8-49-39-48" id="Y"/><path fill="#3a414a" d="M114-163C36-179 61-72 57 0H25l-1-190h30c1 12-1 29 2 39 6-27 23-49 58-41v29" id="Z"/><g id="h"><use transform="matrix(0.05,0,0,0.05,0,0)" xlink:href="#W"/><use transform="matrix(0.05,0,0,0.05,5,0)" xlink:href="#V"/><use transform="matrix(0.05,0,0,0.05,15,0)" xlink:href="#S"/><use transform="matrix(0.05,0,0,0.05,25,0)" xlink:href="#X"/><use transform="matrix(0.05,0,0,0.05,34,0)" xlink:href="#Y"/><use transform="matrix(0.05,0,0,0.05,44,0)" xlink:href="#V"/><use transform="matrix(0.05,0,0,0.05,54,0)" xlink:href="#Z"/></g><path d="M205 0l-28-72H64L36 0H1l101-248h38L239 0h-34zm-38-99l-47-123c-12 45-31 82-46 123h93" id="aa"/><path d="M84 4C-5 8 30-112 23-190h32v120c0 31 7 50 39 49 72-2 45-101 50-169h31l1 190h-30c-1-10 1-25-2-33-11 22-28 36-60 37" id="ab"/><path d="M59-47c-2 24 18 29 38 22v24C64 9 27 4 27-40v-127H5v-23h24l9-43h21v43h35v23H59v120" id="ac"/><path d="M106-169C34-169 62-67 57 0H25v-261h32l-1 103c12-21 28-36 61-36 89 0 53 116 60 194h-32v-121c2-32-8-49-39-48" id="ad"/><path d="M100-194c62-1 85 37 85 99 1 63-27 99-86 99S16-35 15-95c0-66 28-99 85-99zM99-20c44 1 53-31 53-75 0-43-8-75-51-75s-53 32-53 75 10 74 51 75" id="ae"/><path d="M117-194c89-4 53 116 60 194h-32v-121c0-31-8-49-39-48C34-167 62-67 57 0H25l-1-190h30c1 10-1 24 2 32 11-22 29-35 61-36" id="af"/><path d="M24-231v-30h32v30H24zM24 0v-190h32V0H24" id="ag"/><path d="M101-234c-31-9-42 10-38 44h38v23H63V0H32v-167H5v-23h27c-7-52 17-82 69-68v24" id="ah"/><path d="M96-169c-40 0-48 33-48 73s9 75 48 75c24 0 41-14 43-38l32 2c-6 37-31 61-74 61-59 0-76-41-82-99-10-93 101-131 147-64 4 7 5 14 7 22l-32 3c-4-21-16-35-41-35" id="ai"/><path d="M141-36C126-15 110 5 73 4 37 3 15-17 15-53c-1-64 63-63 125-63 3-35-9-54-41-54-24 1-41 7-42 31l-33-3c5-37 33-52 76-52 45 0 72 20 72 64v82c-1 20 7 32 28 27v20c-31 9-61-2-59-35zM48-53c0 20 12 33 32 33 41-3 63-29 60-74-43 2-92-5-92 41" id="aj"/><g id="i"><use transform="matrix(0.07407407407407408,0,0,0.07407407407407408,0,0)" xlink:href="#aa"/><use transform="matrix(0.07407407407407408,0,0,0.07407407407407408,17.77777777777778,0)" xlink:href="#ab"/><use transform="matrix(0.07407407407407408,0,0,0.07407407407407408,32.592592592592595,0)" xlink:href="#ac"/><use transform="matrix(0.07407407407407408,0,0,0.07407407407407408,40,0)" xlink:href="#ad"/><use transform="matrix(0.07407407407407408,0,0,0.07407407407407408,54.81481481481482,0)" xlink:href="#ae"/><use transform="matrix(0.07407407407407408,0,0,0.07407407407407408,69.62962962962963,0)" xlink:href="#af"/><use transform="matrix(0.07407407407407408,0,0,0.07407407407407408,84.44444444444446,0)" xlink:href="#ac"/><use transform="matrix(0.07407407407407408,0,0,0.07407407407407408,91.85185185185186,0)" xlink:href="#ag"/><use transform="matrix(0.07407407407407408,0,0,0.07407407407407408,97.70370370370371,0)" xlink:href="#ah"/><use transform="matrix(0.07407407407407408,0,0,0.07407407407407408,105.11111111111111,0)" xlink:href="#ag"/><use transform="matrix(0.07407407407407408,0,0,0.07407407407407408,110.96296296296296,0)" xlink:href="#ai"/><use transform="matrix(0.07407407407407408,0,0,0.07407407407407408,124.29629629629632,0)" xlink:href="#aj"/><use transform="matrix(0.07407407407407408,0,0,0.07407407407407408,139.11111111111111,0)" xlink:href="#ac"/><use transform="matrix(0.07407407407407408,0,0,0.07407407407407408,146.51851851851853,0)" xlink:href="#ag"/><use transform="matrix(0.07407407407407408,0,0,0.07407407407407408,152.37037037037038,0)" xlink:href="#ae"/><use transform="matrix(0.07407407407407408,0,0,0.07407407407407408,167.18518518518522,0)" xlink:href="#af"/></g><path d="M85-194c31 0 48 13 60 33l-1-100h32l1 261h-30c-2-10 0-23-3-31C134-8 116 4 85 4 32 4 16-35 15-94c0-66 23-100 70-100zm9 24c-40 0-46 34-46 75 0 40 6 74 45 74 42 0 51-32 51-76 0-42-9-74-50-73" id="ak"/><path d="M210-169c-67 3-38 105-44 169h-31v-121c0-29-5-50-35-48C34-165 62-65 56 0H25l-1-190h30c1 10-1 24 2 32 10-44 99-50 107 0 11-21 27-35 58-36 85-2 47 119 55 194h-31v-121c0-29-5-49-35-48" id="al"/><g id="j"><use transform="matrix(0.06234567901234565,0,0,0.06234567901234565,0,0)" xlink:href="#aa"/><use transform="matrix(0.06234567901234565,0,0,0.06234567901234565,14.962962962962957,0)" xlink:href="#ak"/><use transform="matrix(0.06234567901234565,0,0,0.06234567901234565,27.432098765432087,0)" xlink:href="#al"/><use transform="matrix(0.06234567901234565,0,0,0.06234567901234565,46.07345679012344,0)" xlink:href="#ag"/><use transform="matrix(0.06234567901234565,0,0,0.06234567901234565,50.99876543209874,0)" xlink:href="#af"/></g><path fill="#3a414a" d="M135-143c-3-34-86-38-87 0 15 53 115 12 119 90S17 21 10-45l28-5c4 36 97 45 98 0-10-56-113-15-118-90-4-57 82-63 122-42 12 7 21 19 24 35" id="am"/><path fill="#3a414a" d="M84 4C-5 8 30-112 23-190h32v120c0 31 7 50 39 49 72-2 45-101 50-169h31l1 190h-30c-1-10 1-25-2-33-11 22-28 36-60 37" id="an"/><path fill="#3a414a" d="M85-194c31 0 48 13 60 33l-1-100h32l1 261h-30c-2-10 0-23-3-31C134-8 116 4 85 4 32 4 16-35 15-94c0-66 23-100 70-100zm9 24c-40 0-46 34-46 75 0 40 6 74 45 74 42 0 51-32 51-76 0-42-9-74-50-73" id="ao"/><g id="k"><use transform="matrix(0.05,0,0,0.05,0,0)" xlink:href="#am"/><use transform="matrix(0.05,0,0,0.05,9,0)" xlink:href="#W"/><use transform="matrix(0.05,0,0,0.05,14,0)" xlink:href="#an"/><use transform="matrix(0.05,0,0,0.05,24,0)" xlink:href="#ao"/><use transform="matrix(0.05,0,0,0.05,34,0)" xlink:href="#V"/><use transform="matrix(0.05,0,0,0.05,44,0)" xlink:href="#T"/><use transform="matrix(0.05,0,0,0.05,54,0)" xlink:href="#W"/></g><g id="l"><use transform="matrix(0.05,0,0,0.05,0,0)" xlink:href="#R"/><use transform="matrix(0.05,0,0,0.05,14.950000000000001,0)" xlink:href="#S"/><use transform="matrix(0.05,0,0,0.05,24.950000000000003,0)" xlink:href="#T"/><use transform="matrix(0.05,0,0,0.05,34.95,0)" xlink:href="#S"/><use transform="matrix(0.05,0,0,0.05,44.95,0)" xlink:href="#U"/><use transform="matrix(0.05,0,0,0.05,54.95,0)" xlink:href="#V"/></g><g id="m"><use transform="matrix(0.05,0,0,0.05,0,0)" xlink:href="#W"/><use transform="matrix(0.05,0,0,0.05,5,0)" xlink:href="#S"/><use transform="matrix(0.05,0,0,0.05,15,0)" xlink:href="#U"/><use transform="matrix(0.05,0,0,0.05,25,0)" xlink:href="#am"/></g><g id="n"><use transform="matrix(0.05,0,0,0.05,0,0)" xlink:href="#R"/><use transform="matrix(0.05,0,0,0.05,14.950000000000001,0)" xlink:href="#S"/><use transform="matrix(0.05,0,0,0.05,24.950000000000003,0)" xlink:href="#T"/><use transform="matrix(0.05,0,0,0.05,34.95,0)" xlink:href="#S"/><use transform="matrix(0.05,0,0,0.05,44.95,0)" xlink:href="#U"/><use transform="matrix(0.05,0,0,0.05,54.95,0)" xlink:href="#V"/></g><path fill="#3a414a" d="M100-194c62-1 85 37 85 99 1 63-27 99-86 99S16-35 15-95c0-66 28-99 85-99zM99-20c44 1 53-31 53-75 0-43-8-75-51-75s-53 32-53 75 10 74 51 75" id="ap"/><path fill="#3a414a" d="M24-231v-30h32v30H24zM24 0v-190h32V0H24" id="aq"/><g id="o"><use transform="matrix(0.05,0,0,0.05,0,0)" xlink:href="#X"/><use transform="matrix(0.05,0,0,0.05,9,0)" xlink:href="#S"/><use transform="matrix(0.05,0,0,0.05,19,0)" xlink:href="#W"/><use transform="matrix(0.05,0,0,0.05,24,0)" xlink:href="#V"/><use transform="matrix(0.05,0,0,0.05,34,0)" xlink:href="#U"/><use transform="matrix(0.05,0,0,0.05,44,0)" xlink:href="#ap"/><use transform="matrix(0.05,0,0,0.05,54,0)" xlink:href="#Z"/><use transform="matrix(0.05,0,0,0.05,59.95,0)" xlink:href="#aq"/><use transform="matrix(0.05,0,0,0.05,63.900000000000006,0)" xlink:href="#V"/><use transform="matrix(0.05,0,0,0.05,73.9,0)" xlink:href="#am"/></g><path fill="#3a414a" d="M108 0H70L1-190h34L89-25l56-165h34" id="ar"/><path fill="#3a414a" d="M206 0h-36l-40-164L89 0H53L-1-190h32L70-26l43-164h34l41 164 42-164h31" id="as"/><g id="p"><use transform="matrix(0.05,0,0,0.05,0,0)" xlink:href="#ar"/><use transform="matrix(0.05,0,0,0.05,9,0)" xlink:href="#aq"/><use transform="matrix(0.05,0,0,0.05,12.949999999999998,0)" xlink:href="#V"/><use transform="matrix(0.05,0,0,0.05,22.95,0)" xlink:href="#as"/></g><g id="q"><use transform="matrix(0.05,0,0,0.05,0,0)" xlink:href="#am"/><use transform="matrix(0.05,0,0,0.05,9,0)" xlink:href="#W"/><use transform="matrix(0.05,0,0,0.05,14,0)" xlink:href="#S"/><use transform="matrix(0.05,0,0,0.05,24,0)" xlink:href="#W"/><use transform="matrix(0.05,0,0,0.05,29,0)" xlink:href="#aq"/><use transform="matrix(0.05,0,0,0.05,32.95,0)" xlink:href="#am"/><use transform="matrix(0.05,0,0,0.05,41.95,0)" xlink:href="#W"/><use transform="matrix(0.05,0,0,0.05,46.95,0)" xlink:href="#aq"/><use transform="matrix(0.05,0,0,0.05,50.900000000000006,0)" xlink:href="#X"/><use transform="matrix(0.05,0,0,0.05,59.900000000000006,0)" xlink:href="#am"/></g><g id="r"><use transform="matrix(0.05,0,0,0.05,0,0)" xlink:href="#S"/><use transform="matrix(0.05,0,0,0.05,10,0)" xlink:href="#ao"/><use transform="matrix(0.05,0,0,0.05,20,0)" xlink:href="#ao"/></g><g id="s"><use transform="matrix(0.05,0,0,0.05,0,0)" xlink:href="#V"/><use transform="matrix(0.05,0,0,0.05,10,0)" xlink:href="#ao"/><use transform="matrix(0.05,0,0,0.05,20,0)" xlink:href="#aq"/><use transform="matrix(0.05,0,0,0.05,23.95,0)" xlink:href="#W"/></g><path d="M18-100v-36l175-74v27L42-118l151 64v27" id="at"/><path d="M24 0v-261h32V0H24" id="au"/><path d="M100-194c63 0 86 42 84 106H49c0 40 14 67 53 68 26 1 43-12 49-29l28 8c-11 28-37 45-77 45C44 4 14-33 15-96c1-61 26-98 85-98zm52 81c6-60-76-77-97-28-3 7-6 17-6 28h103" id="av"/><path d="M18-27v-27l151-64-151-65v-27l175 74v36" id="aw"/><g id="t"><use transform="matrix(0.08641975308641976,0,0,0.08641975308641976,0,0)" xlink:href="#at"/><use transform="matrix(0.08641975308641976,0,0,0.08641975308641976,18.14814814814815,0)" xlink:href="#at"/><use transform="matrix(0.08641975308641976,0,0,0.08641975308641976,36.2962962962963,0)" xlink:href="#ag"/><use transform="matrix(0.08641975308641976,0,0,0.08641975308641976,43.123456790123456,0)" xlink:href="#af"/><use transform="matrix(0.08641975308641976,0,0,0.08641975308641976,60.407407407407405,0)" xlink:href="#ai"/><use transform="matrix(0.08641975308641976,0,0,0.08641975308641976,75.96296296296296,0)" xlink:href="#au"/><use transform="matrix(0.08641975308641976,0,0,0.08641975308641976,82.79012345679013,0)" xlink:href="#ab"/><use transform="matrix(0.08641975308641976,0,0,0.08641975308641976,100.07407407407409,0)" xlink:href="#ak"/><use transform="matrix(0.08641975308641976,0,0,0.08641975308641976,117.35802469135801,0)" xlink:href="#av"/><use transform="matrix(0.08641975308641976,0,0,0.08641975308641976,134.64197530864197,0)" xlink:href="#aw"/><use transform="matrix(0.08641975308641976,0,0,0.08641975308641976,152.79012345679013,0)" xlink:href="#aw"/></g><path fill="#3a414a" d="M24 0v-261h32V0H24" id="ax"/><g id="u"><use transform="matrix(0.05,0,0,0.05,0,0)" xlink:href="#ao"/><use transform="matrix(0.05,0,0,0.05,10,0)" xlink:href="#V"/><use transform="matrix(0.05,0,0,0.05,20,0)" xlink:href="#ax"/><use transform="matrix(0.05,0,0,0.05,23.95,0)" xlink:href="#V"/><use transform="matrix(0.05,0,0,0.05,33.95,0)" xlink:href="#W"/><use transform="matrix(0.05,0,0,0.05,38.95,0)" xlink:href="#V"/></g><g id="v"><use transform="matrix(0.05,0,0,0.05,0,0)" xlink:href="#S"/><use transform="matrix(0.05,0,0,0.05,10,0)" xlink:href="#X"/><use transform="matrix(0.05,0,0,0.05,19,0)" xlink:href="#W"/><use transform="matrix(0.05,0,0,0.05,24,0)" xlink:href="#aq"/><use transform="matrix(0.05,0,0,0.05,27.950000000000003,0)" xlink:href="#ar"/><use transform="matrix(0.05,0,0,0.05,36.95,0)" xlink:href="#S"/><use transform="matrix(0.05,0,0,0.05,46.95,0)" xlink:href="#W"/><use transform="matrix(0.05,0,0,0.05,51.95,0)" xlink:href="#V"/></g><path fill="#3a414a" d="M115-194c55 1 70 41 70 98S169 2 115 4C84 4 66-9 55-30l1 105H24l-1-265h31l2 30c10-21 28-34 59-34zm-8 174c40 0 45-34 45-75s-6-73-45-74c-42 0-51 32-51 76 0 43 10 73 51 73" id="ay"/><g id="w"><use transform="matrix(0.05,0,0,0.05,0,0)" xlink:href="#am"/><use transform="matrix(0.05,0,0,0.05,9,0)" xlink:href="#an"/><use transform="matrix(0.05,0,0,0.05,19,0)" xlink:href="#am"/><use transform="matrix(0.05,0,0,0.05,28,0)" xlink:href="#ay"/><use transform="matrix(0.05,0,0,0.05,38,0)" xlink:href="#V"/><use transform="matrix(0.05,0,0,0.05,48,0)" xlink:href="#T"/><use transform="matrix(0.05,0,0,0.05,58,0)" xlink:href="#ao"/></g><path d="M141 0L90-78 38 0H4l68-98-65-92h35l48 74 47-74h35l-64 92 68 98h-35" id="az"/><g id="x"><use transform="matrix(0.06234567901234567,0,0,0.06234567901234567,0,0)" xlink:href="#at"/><use transform="matrix(0.06234567901234567,0,0,0.06234567901234567,13.09259259259259,0)" xlink:href="#at"/><use transform="matrix(0.06234567901234567,0,0,0.06234567901234567,26.18518518518518,0)" xlink:href="#av"/><use transform="matrix(0.06234567901234567,0,0,0.06234567901234567,38.654320987654316,0)" xlink:href="#az"/><use transform="matrix(0.06234567901234567,0,0,0.06234567901234567,49.87654320987654,0)" xlink:href="#ac"/><use transform="matrix(0.06234567901234567,0,0,0.06234567901234567,56.1111111111111,0)" xlink:href="#av"/><use transform="matrix(0.06234567901234567,0,0,0.06234567901234567,68.58024691358023,0)" xlink:href="#af"/><use transform="matrix(0.06234567901234567,0,0,0.06234567901234567,81.04938271604937,0)" xlink:href="#ak"/><use transform="matrix(0.06234567901234567,0,0,0.06234567901234567,93.5185185185185,0)" xlink:href="#aw"/><use transform="matrix(0.06234567901234567,0,0,0.06234567901234567,106.6111111111111,0)" xlink:href="#aw"/></g><g id="y"><use transform="matrix(0.06790123456790124,0,0,0.06790123456790124,0,0)" xlink:href="#at"/><use transform="matrix(0.06790123456790124,0,0,0.06790123456790124,14.259259259259261,0)" xlink:href="#at"/><use transform="matrix(0.06790123456790124,0,0,0.06790123456790124,28.518518518518523,0)" xlink:href="#av"/><use transform="matrix(0.06790123456790124,0,0,0.06790123456790124,42.09876543209877,0)" xlink:href="#az"/><use transform="matrix(0.06790123456790124,0,0,0.06790123456790124,54.320987654320994,0)" xlink:href="#ac"/><use transform="matrix(0.06790123456790124,0,0,0.06790123456790124,61.11111111111112,0)" xlink:href="#av"/><use transform="matrix(0.06790123456790124,0,0,0.06790123456790124,74.69135802469137,0)" xlink:href="#af"/><use transform="matrix(0.06790123456790124,0,0,0.06790123456790124,88.27160493827162,0)" xlink:href="#ak"/><use transform="matrix(0.06790123456790124,0,0,0.06790123456790124,101.85185185185188,0)" xlink:href="#aw"/><use transform="matrix(0.06790123456790124,0,0,0.06790123456790124,116.11111111111114,0)" xlink:href="#aw"/></g></defs></g></svg>