<svg xmlns="http://www.w3.org/2000/svg" xmlns:xlink="http://www.w3.org/1999/xlink" xmlns:lucid="lucid" width="2418.68" height="1678.88"><g transform="translate(922 -2339.5)" lucid:page-tab-id=".Q4MUjXso07N"><path d="M-1000 2000h2500v2500h-2500z" fill="#fff"/><path d="M445.93 3620.3c0 10.9-8.84 19.75-19.75 19.75-10.9 0-19.75-8.84-19.75-19.75 0-10.9 8.84-19.75 19.75-19.75 10.9 0 19.75 8.84 19.75 19.75z" stroke="#333" stroke-width="4" fill="#fff"/><path d="M426.18 3640.05v49.3a19.48 19.48 0 0 0 3.38 10.96l39.64 58.25m-43.02-63.2l-43.02 63.2m0-98.75h86.04" stroke="#333" stroke-width="4" fill="none"/><path d="M383.16 3606.55a6 6 0 0 1 6-6h74.04a6 6 0 0 1 6 6v168a6 6 0 0 1-6 6h-74.04a6 6 0 0 1-6-6z" fill="none"/><use xlink:href="#a" transform="matrix(1,0,0,1,303.1632409792478,3758.5483739420943) translate(97.345987654321 17.95555555555555)"/><path d="M-463.82 2348a8 8 0 0 1 8-8h1944a8 8 0 0 1 8 8v1661.88a8 8 0 0 1-8 8h-1944a8 8 0 0 1-8-8z" stroke="#000" stroke-opacity="0" fill="#edf5ff"/><use xlink:href="#b" transform="matrix(1,0,0,1,-455.81884487582806,2348) translate(701.1172839506173 24.888888888888893)"/><use xlink:href="#c" transform="matrix(1,0,0,1,-455.81884487582806,2348) translate(820.2901234567902 24.888888888888893)"/><use xlink:href="#d" transform="matrix(1,0,0,1,-455.81884487582806,2348) translate(987.5987654320988 24.888888888888893)"/><use xlink:href="#e" transform="matrix(1,0,0,1,-455.81884487582806,2348) translate(1032.4506172839506 24.888888888888893)"/><use xlink:href="#f" transform="matrix(1,0,0,1,-455.81884487582806,2348) translate(1125.6111111111113 24.888888888888893)"/><use xlink:href="#g" transform="matrix(1,0,0,1,-455.81884487582806,2348) translate(1170.462962962963 24.888888888888893)"/><path d="M1440 2947.44c0 48.3-44.77 87.44-100 87.44s-100-39.15-100-87.44c0-48.3 44.77-87.44 100-87.44s100 39.15 100 87.44z" stroke="#000" stroke-width="4" fill="#4d9eff"/><use xlink:href="#h" transform="matrix(1,0,0,1,1270,2894.9758898241107) translate(-21 57.833333333333336)"/><path d="M-775.25 3494.75c0 19.2-15.56 34.75-34.75 34.75-19.2 0-34.75-15.56-34.75-34.75 0-19.2 15.56-34.75 34.75-34.75 19.2 0 34.75 15.56 34.75 34.75z" stroke="#333" stroke-width="4" fill="#fff"/><path d="M-810 3529.5v91.3a14.6 14.6 0 0 0 4.22 10.27L-700 3738m-110-111.2L-920 3738m0-173.75h220" stroke="#333" stroke-width="4" fill="none"/><path d="M-920 3466a6 6 0 0 1 6-6h208a6 6 0 0 1 6 6v288a6 6 0 0 1-6 6h-208a6 6 0 0 1-6-6z" fill="none"/><use xlink:href="#i" transform="matrix(1,0,0,1,-1000,3738) translate(150.16111111111113 17.95555555555555)"/><path d="M-100 3430c0 38.66-53.73 70-120 70-66.27 0-120-31.34-120-70s53.73-70 120-70c66.27 0 120 31.34 120 70z" stroke="#000" fill="#4d9eff"/><use xlink:href="#j" transform="matrix(1,0,0,1,-304,3388) translate(50.29629629629629 29.55555555555555)"/><use xlink:href="#k" transform="matrix(1,0,0,1,-304,3388) translate(16.722222222222214 66.88888888888889)"/><path d="M-755.25 2854.75c0 19.2-15.56 34.75-34.75 34.75-19.2 0-34.75-15.56-34.75-34.75 0-19.2 15.56-34.75 34.75-34.75 19.2 0 34.75 15.56 34.75 34.75z" stroke="#333" stroke-width="4" fill="#fff"/><path d="M-790 2889.5v91.3a14.6 14.6 0 0 0 4.22 10.27L-680 3098m-110-111.2L-900 3098m0-173.75h220" stroke="#333" stroke-width="4" fill="none"/><path d="M-900 2826a6 6 0 0 1 6-6h208a6 6 0 0 1 6 6v288a6 6 0 0 1-6 6h-208a6 6 0 0 1-6-6z" fill="none"/><use xlink:href="#l" transform="matrix(1,0,0,1,-980,3098) translate(151.3456790123457 17.95555555555555)"/><path d="M-755.25 2454.75c0 19.2-15.56 34.75-34.75 34.75-19.2 0-34.75-15.56-34.75-34.75 0-19.2 15.56-34.75 34.75-34.75 19.2 0 34.75 15.56 34.75 34.75z" stroke="#333" stroke-width="4" fill="#fff"/><path d="M-790 2489.5v91.3a14.6 14.6 0 0 0 4.22 10.27L-680 2698m-110-111.2L-900 2698m0-173.75h220" stroke="#333" stroke-width="4" fill="none"/><path d="M-900 2426a6 6 0 0 1 6-6h208a6 6 0 0 1 6 6v288a6 6 0 0 1-6 6h-208a6 6 0 0 1-6-6z" fill="none"/><use xlink:href="#m" transform="matrix(1,0,0,1,-980,2698) translate(166.370987654321 17.95555555555555)"/><path d="M-100 3571.16c0 27.73-53.73 50.2-120 50.2-66.27 0-120-22.47-120-50.2 0-27.72 53.73-50.2 120-50.2 66.27 0 120 22.48 120 50.2z" stroke="#000" fill="#4d9eff"/><use xlink:href="#n" transform="matrix(1,0,0,1,-304,3541.040381902192) translate(21.38888888888888 24.888888888888893)"/><use xlink:href="#o" transform="matrix(1,0,0,1,-304,3541.040381902192) translate(17.586419753086403 62.222222222222236)"/><path d="M-100 3705.52c0 27.72-53.73 50.2-120 50.2-66.27 0-120-22.48-120-50.2 0-27.73 53.73-50.2 120-50.2 66.27 0 120 22.47 120 50.2z" stroke="#000" fill="#4d9eff"/><use xlink:href="#p" transform="matrix(1,0,0,1,-304,3675.3935253618356) translate(22.771604938271594 24.888888888888893)"/><use xlink:href="#o" transform="matrix(1,0,0,1,-304,3675.3935253618356) translate(17.586419753086403 62.222222222222236)"/><path d="M-80 3854.83c0 36-53.73 65.17-120 65.17-66.27 0-120-29.18-120-65.17 0-36 53.73-65.16 120-65.16 66.27 0 120 29.17 120 65.16z" stroke="#000" fill="#4d9eff"/><use xlink:href="#q" transform="matrix(1,0,0,1,-284,3815.731733995838) translate(48.654320987654316 27.05555555555555)"/><use xlink:href="#o" transform="matrix(1,0,0,1,-284,3815.731733995838) translate(17.586419753086403 64.38888888888889)"/><path d="M-94 3706h-5v-.96h5zm14.95 0h-9.98v-.96h9.98zm14.96 0h-9.97v-.96h9.98zm14.97 0h-9.97v-.96h9.97zm14.96 0h-9.97v-.96h9.97zm14.96 0h-9.98v-.96h9.97zm14.95 0h-9.97v-.96h9.97zm14.96 0H.75v-.96h9.97zm14.98 0H15.7v-.96h9.98zm14.96 0h-9.98v-.96h9.98zm14.96 0h-9.98v-.96h9.98zm14.96 0h-9.98v-.96h9.98zm14.96 0h-9.97v-.96h9.97zm14.96 0H90.5v-.96h9.98zm14.96 0h-9.97v-.96h9.97zm14.96 0h-9.97v-.96h9.97zm14.96 0h-9.97v-.96h9.96zm14.96 0h-9.97v-.96h9.97zm14.97 0h-10v-.96h10zm14.95 0h-9.98v-.96h9.98zm14.96 0h-9.97v-.96h9.98zm14.97 0h-9.97v-.96h9.97zm14.96 0h-9.97v-.96h9.97zm14.96 0h-9.98v-.96h9.97zm14.95 0h-9.97v-.96h9.97zm14.96 0h-9.96v-.96H280zm12.98 0H285v-.96h7.98zm196.5 0h-10v-.96h10zm14.95 0h-9.97v-.96h9.97zm14.96 0h-9.98v-.96h9.97zm14.95 0h-9.97v-.96h9.97zm14.96 0h-9.96v-.96h9.97zm14.97 0h-9.97v-.96h9.97zm14.97 0h-9.98v-.96h9.98zm14.96 0h-9.98v-.96h9.98zm14.96 0h-9.98v-.96h9.98zm14.96 0h-9.98v-.96h9.98zm14.96 0h-9.98v-.96h9.98zm14.96 0h-9.97v-.96h9.97zm14.96 0h-9.97v-.96H669zm14.96 0H674v-.96h9.96zm14.96 0h-9.97v-.96h9.97zm14.97 0h-10v-.96h10zm14.95 0h-9.98v-.96h9.98zm14.96 0h-9.97v-.96h9.98zm14.97 0h-9.98v-.96h9.97zm14.96 0h-9.98v-.96h9.98zm14.96 0h-9.98v-.96h9.97zm14.95 0h-9.97v-.96h9.97zm14.96 0h-9.96v-.96h9.97zm14.97 0h-9.97v-.96h9.97zm14.96 0h-9.97v-.96h9.97zm14.97 0h-9.98v-.96h9.98zm14.96 0h-9.98v-.96h9.98zm14.96 0h-9.98v-.96h9.98zm14.96 0h-9.98v-.96h9.98zm14.96 0h-9.98v-.96h9.98zm14.96 0h-9.97v-.96h9.97zm14.96 0h-9.97v-.96h9.96zm14.96 0h-9.97v-.96h9.97zm14.96 0h-9.97v-.96h9.98zm14.97 0h-9.98v-.96h9.98zm14.96 0h-9.97v-.96h9.98zm14.97 0h-9.98v-.96h9.97zm14.96 0h-9.98v-.96h9.98zm14.96 0H1048v-.96h9.97zm14.95 0h-9.97v-.96h9.97zm14.96 0h-9.96v-.96h9.97zm14.97 0h-9.97v-.96h9.97zm14.96 0h-9.97v-.96h9.97zm14.96 0h-9.98v-.96h9.97zm14.96 0h-9.98v-.96h9.98zm14.96 0h-9.98v-.96h9.98zm14.96 0h-9.98v-.96h9.98zm14.96 0h-9.98v-.96h9.98zm14.96 0h-9.97v-.96h9.97zm14.96 0h-9.97v-.96h9.96zm14.96 0h-9.97v-.96h9.97zm14.96 0h-9.97v-.96h9.98zm14.96 0h-9.97v-.96h9.97zm14.96 0h-9.97v-.96h9.97zm14.97 0h-9.98v-.96h9.97zm14.96 0h-9.98v-.96h9.98zm14.96 0h-10v-.96h10zm14.95 0h-9.97v-.96h9.97zm16.2-1.7l-.56.33-1.82.75-1.9.46-1.94.15h-5v-.96h4.96l1.83-.14 1.75-.42 1.67-.7.5-.3zM474.5 3706h-.3v-.96h.3zm890.2-12.47l-.15 1.94-.46 1.9-.76 1.8-.35.58-.82-.5.3-.5.7-1.67.42-1.76.15-1.82v-4.98h.95zm0-10h-.95v-10h.95zm0-15h-.95v-10h.95zm0-15h-.95v-10h.95zm0-15h-.95v-9.98h.95zm0-14.98h-.95v-10h.95zm0-15h-.95v-10h.95zm0-15h-.95v-9.98h.95zm0-14.98h-.95v-10h.95zm0-15h-.95v-10h.95zm0-15h-.95v-9.98h.95zm0-14.98h-.95v-10h.95zm0-15h-.95v-10h.95zm0-15h-.95v-10h.95zm0-15h-.95v-10h.95zm0-14.98h-.95v-10h.95zm0-15h-.95v-10h.95zm0-15h-.95v-9.98h.95zm0-14.98h-.95v-10h.95zm0-15h-.95v-10h.95zm0-15h-.95v-9.98h.95zm0-14.98h-.95v-10h.95zm0-15h-.95v-10h.95zm0-15h-.95v-9.98h.95zm0-14.98h-.95v-10h.95zm0-15h-.95v-10h.95zm0-15h-.95v-9.98h.95zm0-14.98h-.95v-10h.95zm0-15h-.95v-10h.95zm0-15h-.95v-9.98h.95zm0-14.98h-.95v-10h.95zm0-15h-.95v-10h.95zm0-15h-.95v-9.98h.95zm0-14.98h-.95v-10h.95zm0-15h-.95v-10h.95zm0-15h-.95v-9.98h.95zm0-14.98h-.95v-10h.95zm0-15h-.95v-10h.95zm0-15h-.95v-9.98h.95zm0-14.98h-.95v-10h.95zm0-15h-.95v-10h.95zm0-15h-.95v-9.98h.95zm0-14.98h-.95v-10h.95zm0-15h-.95v-5h.95z" stroke="#333" stroke-width=".05" fill="#333"/><path d="M-99 3706h-.5v-.95h.5z" fill="#333"/><path stroke="#333" stroke-width=".05" fill="#333"/><path d="M1371.72 3048.3h-15l7.5-12.98z" fill="#333"/><path d="M1372.55 3048.78h-16.65l8.32-14.4zm-15-.95h13.35l-6.68-11.56z" stroke="#333" stroke-width=".05" fill="#333"/><use xlink:href="#r" transform="matrix(1,0,0,1,292.9801224781854,3686.8498607863266) translate(0.0049999999999954525 24.888888888888893)"/><path d="M-73.98 3855.3H-79v-.94h5.02zm15.07 0h-10.05v-.94h10.04zm15.06 0H-53.9v-.94h10.06zm15.07 0h-10.05v-.94h10.05zm15.06 0h-10.05v-.94h10.04zm15.06 0H-8.68v-.94H1.36zm15.07 0H6.4l-.02-.94h10.05zm15.07 0H21.45v-.94H31.5zm15.07 0H36.52v-.94h10.05zm15.06 0H51.6v-.94h10.03zm15.07 0H66.66v-.94H76.7zm15.07 0H81.72v-.94h10.05zm15.07 0H96.8v-.94h10.04zm15.06 0h-10.04v-.94h10.05zm15.07 0h-10.04v-.94h10.04zm15.07 0H142v-.94h10.04zm15.07 0h-10.04v-.94h10.05zm15.08 0h-10.05v-.94h10.05zm15.06 0H187.2v-.94h10.05zm15.07 0h-10.03v-.94h10.04zm15.08 0h-10.04v-.94h10.04zm15.07 0H232.4v-.94h10.05zm11.87 0h-6.85v-.94h6.85zm199.08 0h-10.05v-.94h10.05zm15.07 0h-10.05v-.94h10.05zm15.06 0H473.5v-.94h10.04zm15.07 0h-10.04v-.94h10.04zm15.07 0h-10.04v-.94h10.04zm15.07 0H518.7v-.94h10.04zm15.07 0h-10.04v-.94h10.05zm15.07 0h-10.04v-.94h10.04zm15.07 0H563.9v-.94h10.04zm15.07 0h-10.03v-.94H589zm15.08 0h-10.05v-.94h10.05zm15.07 0H609.1v-.94h10.05zm15.06 0h-10.03v-.94h10.04zm15.08 0h-10.04v-.94h10.04zm15.07 0H654.3v-.94h10.05zm15.07 0h-10.05v-.94h10.05zm15.07 0h-10.06v-.94h10.05zm15.05 0H699.5v-.94h10.05zm15.07 0h-10.04v-.94h10.04zm15.07 0h-10.06v-.94h10.05zm15.06 0H744.7v-.94h10.06zm15.07 0h-10.05v-.94h10.05zm15.06 0h-10.05v-.94h10.04zm15.06 0h-10.04v-.94h10.04zm15.07 0h-10.05v-.94h10.05zm15.07 0h-10.05v-.94h10.05zm15.06 0h-10.04v-.94h10.04zm15.07 0H850.2v-.94h10.03zm15.07 0h-10.04v-.94h10.04zm15.07 0h-10.05v-.94h10.05zm15.07 0H895.4v-.94h10.04zm15.06 0h-10.04v-.94h10.04zm15.07 0h-10.04v-.94h10.04zm15.07 0H940.6v-.94h10.04zm15.07 0h-10.04v-.94h10.05zm15.08 0h-10.05v-.94h10.05zm15.06 0H985.8v-.94h10.04zm15.07 0h-10.03v-.94h10.04zm15.08 0h-10.05v-.94h10.05zm15.07 0H1031v-.94h10.05zm15.07 0h-10.05v-.94h10.05zm15.06 0h-10.04v-.94h10.04zm15.07 0h-10.04v-.94h10.05zm15.07 0h-10.05v-.94h10.05zm15.07 0h-10.06v-.94h10.05zm15.05 0h-10.04v-.94h10.05zm15.07 0h-10.04v-.94h10.04zm15.07 0h-10.05v-.94h10.04zm15.06 0h-10.05v-.94h10.06zm15.07 0h-10.05v-.94h10.05zm15.06 0h-10.05v-.94h10.04zm15.06 0h-10.04v-.94h10.04zm15.07 0h-10.05v-.94h10.05zm15.07 0h-10.05v-.94H1252zm15.07 0h-10.05v-.94h10.05zm15.06 0h-10.04v-.94h10.03zm15.07 0h-10.04v-.94h10.04zm15.07 0h-10.05v-.94h10.05zm15.07 0h-10.05v-.94h10.04zm15.07 0h-10.04v-.94h10.05zm15.07 0h-10.04v-.94h10.04zm15.07 0h-10.04v-.94h10.04zm16.28-1.7l-.57.35-1.8.75-1.9.46-1.94.15h-5.04v-.94h5l1.83-.15 1.75-.4 1.67-.7.5-.3zm-950.5 1.7h-2.77v-.94h2.78zm956.74-12.45l-.15 1.93-.45 1.9-.75 1.82-.35.56-.8-.5.3-.5.7-1.67.42-1.76.14-1.83v-4.94h.96zm0-9.96h-.95v-9.95h.96zm0-14.92h-.95v-9.95h.96zm0-14.92h-.95v-9.94h.96zm0-14.9h-.95v-9.95h.96zm0-14.93h-.95v-9.94h.96zm0-14.9h-.95v-9.95h.96zm0-14.92h-.95v-9.94h.96zm0-14.9h-.95v-9.95h.96zm0-14.92h-.95v-9.95h.96zm0-14.92h-.95v-9.94h.96zm0-14.9h-.95v-9.95h.96zm0-14.93h-.95v-9.94h.96zm0-14.9h-.95v-9.95h.96zm0-14.92h-.95v-9.94h.96zm0-14.9h-.95v-9.95h.96zm0-14.92h-.95v-9.94h.96zm0-14.9l-.95-.02v-9.94h.96zm0-14.93h-.95v-9.94h.96zm0-14.9h-.95v-9.96h.96zm0-14.93h-.95v-9.94h.96zm0-14.9h-.95v-9.95h.96zm0-14.93h-.95v-9.95h.96zm0-14.92h-.95v-9.94h.96zm0-14.9h-.95v-9.96h.96zm0-14.93h-.95V3465h.96zm0-14.9h-.95v-9.95h.96zm0-14.93h-.95v-9.94h.96zm0-14.9h-.95v-9.95h.96zm0-14.92h-.95v-9.95h.96zm0-14.92h-.95v-9.94h.96zm0-14.9h-.95v-9.95h.96zm0-14.93h-.95v-9.94h.96zm0-14.9h-.95v-9.95h.96zm0-14.92h-.95v-9.95h.96zm0-14.92h-.95v-9.93h.96zm0-14.9h-.95v-9.95h.96zm0-14.92h-.95v-9.94h.96zm0-14.9h-.95v-9.95h.96zm0-14.92h-.95v-9.95h.96zm0-14.92h-.95v-9.94h.96zm0-14.9h-.95v-9.95h.96zm0-14.93h-.95v-9.93h.96zm0-14.9h-.95v-9.94h.96zm0-14.9h-.95v-9.96h.96zm0-14.93h-.95v-9.94h.96zm0-14.9h-.95v-9.96h.96zm0-14.93h-.95v-9.94h.96zm0-14.9h-.95v-9.95h.96zm0-14.93h-.95v-9.93h.96zm0-14.9h-.95v-9.94h.96zm0-14.9h-.95v-9.96h.96zm0-14.93h-.95v-9.94h.96zm0-14.9h-.95v-9.95h.96zm0-14.92h-.95v-4.98h.96z" stroke="#333" stroke-width=".05" fill="#333"/><path d="M-79 3855.3h-.5v-.94h.5z" fill="#333"/><path stroke="#333" stroke-width=".05" fill="#333"/><path d="M1402.1 3036.97h-15l7.5-13z" fill="#333"/><path d="M1402.9 3037.45h-16.64l8.33-14.42zm-15-.95h13.36l-6.67-11.57z" stroke="#333" stroke-width=".05" fill="#333"/><use xlink:href="#s" transform="matrix(1,0,0,1,254.3240473227721,3836.1656670807324) translate(0.0049999999999954525 24.888888888888893)"/><path d="M140 2964.78c0 44.3-53.73 80.2-120 80.2-66.27 0-120-35.9-120-80.2 0-44.3 53.73-80.2 120-80.2 66.27 0 120 35.9 120 80.2z" stroke="#000" fill="#4d9eff"/><use xlink:href="#t" transform="matrix(1,0,0,1,-64,2916.653945472175) translate(43.46913580246913 36.05555555555555)"/><use xlink:href="#u" transform="matrix(1,0,0,1,-64,2916.653945472175) translate(107.24691358024691 36.05555555555555)"/><use xlink:href="#v" transform="matrix(1,0,0,1,-64,2916.653945472175) translate(33.09876543209876 73.38888888888889)"/><path d="M725.95 2965.25H721v-.95h4.95zm14.83 0h-9.9v-.95h9.9zm14.84 0h-9.9v-.95h9.9zm5.2 0h-.26v-.95h.26zm202.5 0h-9.9v-.95h9.9zm14.84 0h-9.9v-.95h9.9zm14.83 0h-9.9v-.95h9.9zm14.83 0h-9.9v-.95h9.9zm14.84 0h-9.9v-.95h9.9zm14.83 0h-9.9v-.95h9.9zm14.84 0h-9.9v-.95h9.9zm14.83 0h-9.9v-.95h9.9zm14.84 0h-9.88v-.95h9.9zm14.85 0h-9.9v-.95h9.9zm14.83 0h-9.9v-.95h9.9zm14.84 0h-9.9v-.95h9.9zm14.83 0h-9.9v-.95h9.9zm14.84 0h-9.9v-.95h9.9zm14.83 0h-9.9v-.95h9.9zm14.83 0h-9.9v-.95h9.9zm14.84 0h-9.9v-.95h9.9zm14.83 0h-9.9v-.95h9.9zm9.9 0h-4.95v-.95h4.94zm-276.94 0h-6.46v-.95h6.45z" stroke="#333" stroke-width=".05" fill="#333"/><path d="M721 2965.25h-.5V2964.33l.5-.03z" fill="#333"/><path stroke="#333" stroke-width=".05" fill="#333"/><path d="M1238.9 2964.78l-12.98 7.5v-15z" fill="#333"/><path d="M1239.87 2964.78l-14.42 8.32v-16.65zm-13.47 6.67l11.56-6.67-11.56-6.68z" stroke="#333" stroke-width=".05" fill="#333"/><use xlink:href="#w" transform="matrix(1,0,0,1,760.8145753473591,2946.1102807955335) translate(0.0049999999999954525 24.888888888888893)"/><path d="M160.13 2965.25H155v-.95h5.13zm15.42 0h-10.28v-.95h10.28zm15.4 0H180.7v-.95h10.26zm15.43 0H196.1v-.95h10.28zm15.42 0h-10.28v-.95h10.28zm15.42 0h-10.28v-.95h10.28zm15.4 0h-10.26v-.95h10.27zm15.43 0h-10.28v-.95h10.28zm15.42 0H273.2v-.95h10.27zm15.42 0h-10.3v-.95h10.3zm15.4 0h-10.27v-.95h10.27zm183.88 0h-10.2v-.95h10.2zm15.3 0h-10.2v-.95h10.2zm15.3 0h-10.2v-.95h10.2zm10.22 0h-5.1v-.95h5.1z" stroke="#333" stroke-width=".05" fill="#333"/><path d="M154.5 2972.28l-13-7.5 13-7.5z" fill="#333"/><path d="M154.97 2973.1l-14.42-8.32 14.4-8.33zm-12.52-8.32l11.56 6.67v-13.35z" stroke="#333" stroke-width=".05" fill="#333"/><path d="M539.5 2964.77v.45l-.5.03v-.95h.5z" fill="#333"/><path stroke="#333" stroke-width=".05" fill="#333"/><use xlink:href="#x" transform="matrix(1,0,0,1,318.1162787296838,2946.1102807955335) translate(0.0049999999999954525 24.888888888888893)"/><path d="M145.98 3179.42H141v-.95h4.98zm14.95 0h-9.96v-.95h9.96zm14.95 0h-9.97v-.95h9.98zm14.95 0h-9.97v-.95h9.97zm14.95 0h-9.97v-.95h9.98zm14.95 0h-9.97v-.95h9.97zm14.95 0h-9.97v-.95h9.98zm14.95 0h-9.97v-.95h9.97zm14.94 0h-9.96v-.95h9.97zm14.95 0h-9.96v-.95h9.96zm14.95 0h-9.96v-.95h9.97zm14.95 0h-9.96v-.95h9.96zm14.95 0h-9.97v-.95h9.97zm14.95 0h-9.97v-.95h9.97zm14.95 0h-9.97v-.95h9.97zm14.95 0h-9.97v-.95h9.97zm14.95 0h-9.97v-.95h9.97zm14.95 0h-9.97v-.95h9.97zm14.94 0h-9.96v-.95h9.96zm14.95 0h-9.95v-.95H430zm14.96 0H435v-.95h9.96zm14.95 0h-9.95v-.95h9.96zm14.96 0h-9.96v-.95h9.96zm209.3 0h-9.98v-.95h9.97zm14.94 0h-9.97v-.95h9.97zm14.95 0h-9.97v-.95h9.97zm14.95 0h-9.97v-.95H729zm14.94 0h-9.96v-.95h9.96zm14.95 0h-9.97v-.95h9.96zm14.94 0h-9.96v-.95h9.96zm14.95 0h-9.97v-.95h9.96zm14.94 0h-9.97v-.95h9.97zm14.95 0h-9.98v-.95h9.97zm14.94 0h-9.97v-.95h9.97zm14.95 0h-9.98v-.95h9.97zm14.94 0h-9.97v-.95h9.97zm14.95 0h-9.98v-.95h9.97zm14.93 0h-9.96v-.95h9.96zm14.95 0h-9.96v-.95h9.96zm14.95 0h-9.96v-.95h9.96zm14.95 0h-9.96v-.95h9.96zm14.95 0h-9.97v-.95h9.97zm14.95 0h-9.97v-.95h9.98zm14.95 0h-9.97v-.95h9.97zm14.95 0h-9.97v-.95h9.98zm14.95 0h-9.97v-.95h9.97zm14.94 0H1018v-.95h9.97zm14.95 0h-9.96v-.95h9.96zm14.95 0h-9.96v-.95h9.97zm14.95 0h-9.96v-.95h9.96zm14.95 0h-9.96v-.95h9.97zm14.95 0h-9.96v-.95h9.96zm14.95 0h-9.97v-.95h9.97zm14.95 0h-9.97v-.95h9.97zm14.95 0h-9.97v-.95h9.97zm14.95 0h-9.97v-.95h9.97zm14.95 0h-9.97v-.95h9.97zm14.94 0h-9.95v-.95h9.96zm14.96 0h-9.96v-.95h9.96zm14.95 0h-9.95v-.95h9.96zm14.96 0h-9.96v-.95h9.96zm14.95 0h-9.96v-.95h9.97zm14.96 0h-9.97v-.95h9.96zm16.2-1.7l-.57.34-1.82.75-1.9.46-1.93.16h-5v-.95h4.96l1.83-.15 1.76-.42 1.66-.7.5-.3zm-614.16 1.7h-8.85v-.95h8.85zm620.4-12.46l-.15 1.93-.46 1.9-.76 1.8-.35.57-.82-.5.3-.5.7-1.67.43-1.76.15-1.82v-4.7h.95zm0-9.46h-.95v-9.45h.95zm0-14.17h-.95v-9.44h.95zm0-14.17h-.95v-9.44h.95zm0-14.16h-.95v-9.45h.95zm0-14.17h-.95v-9.45h.95zm0-14.17h-.95v-9.44h.95zm0-14.17h-.95v-9.45h.95zm0-14.17h-.95v-9.45h.95zm0-14.17h-.95v-4.72h.95z" stroke="#333" stroke-width=".05" fill="#333"/><path d="M141 3179.42h-.5v-.95h.5z" fill="#333"/><path stroke="#333" stroke-width=".05" fill="#333"/><path d="M1296.63 3038.94h-15l7.5-13z" fill="#333"/><path d="M1297.45 3039.4h-16.65l8.33-14.4zm-15-.94h13.35l-6.67-11.56z" stroke="#333" stroke-width=".05" fill="#333"/><use xlink:href="#s" transform="matrix(1,0,0,1,479.1281315191784,3160.275461821161) translate(0.0049999999999954525 24.888888888888893)"/><path d="M-115 2964.78h-561.4a2.6 2.6 0 0 0-2.6 2.6 2.6 2.6 0 0 1-2.6 2.62h-105.9" stroke="#333" fill="none"/><path d="M-101.5 2964.78l-13 7.5v-15z" stroke="#333" fill="#333"/><path d="M-787.5 2970h-3.5" stroke="#333" fill="none"/><path d="M720 2964.78c0 27.67-40.3 50.1-90 50.1s-90-22.43-90-50.1 40.3-50.1 90-50.1 90 22.43 90 50.1z" stroke="#000" fill="#4d9eff"/><use xlink:href="#y" transform="matrix(1,0,0,1,567,2934.7154464671876) translate(-1.6851851851851904 36.72222222222222)"/><path d="M-94 3430.47h-5v-.94h5zm15.02 0h-10v-.94h10zm15.02 0h-10v-.94h10zm15.02 0h-10v-.94h10zm15.02 0h-10v-.94h10zm15.02 0h-10.02v-.94h10.02zm15 0h-10v-.94h10.02zm15.03 0h-10v-.94h10zm15.02 0h-10v-.94h10zm15.02 0h-10v-.94h10zm15.02 0H46.17v-.94h10zm15 0h-10v-.94h10zm15.02 0h-10v-.94h10zm15.02 0h-10v-.94h10zm15.02 0h-10v-.94h10zm15.02 0h-10v-.94h10zm15.02 0h-10.02v-.94h10.02zm15.02 0H151.3v-.94h10.02zm15 0h-10v-.94h10zm15.03 0h-10v-.94h10zm15.02 0h-10v-.94h10zm12.26 0h-7.25v-.94h7.25zm198 0H406.6v-.94h10.02zm15 0h-10v-.94h10zm15.03 0h-10v-.94h10zm15.02 0h-10v-.94h10zm15.02 0h-10v-.94h10zm15.02 0H481.7v-.94h10.02zm15 0h-10v-.94h10zm15.03 0h-10v-.94h10zm15.02 0h-10v-.94h10zm15.02 0h-10.02v-.94h10zm15 0h-10v-.94h10zm15.03 0H571.8v-.94h10.03zm15 0h-10v-.94h10zm15.03 0h-10v-.94h10zm15.02 0h-10v-.94h10zm15.02 0h-10v-.94h10zm15.02 0H646.9v-.94h10.02zm15 0h-10v-.94h10zm15.03 0h-10v-.94h10zm15.02 0h-10v-.94h10zm15.02 0h-10.02v-.94h10zm15 0h-10v-.94h10zm15.03 0H737v-.94h10.03zm15 0h-10v-.94h10zm15.03 0h-10v-.94h10zm15.02 0h-10v-.94h10zm15.02 0h-10v-.94h10zm15.02 0H812.1v-.94h10.02zm15 0h-10v-.94h10zm15.03 0h-10v-.94h10zm15.02 0h-10v-.94h10zm15.02 0h-10.02v-.94h10zm15 0h-10v-.94h10zm15.03 0H902.2v-.94h10.03zm15 0h-10v-.94h10zm15.03 0h-10v-.94h10zm15.02 0h-10v-.94h10zm15.02 0h-10v-.94h10zm15.02 0H977.3v-.94h10.02zm15 0h-10v-.94h10zm15.03 0h-10v-.94h10zm15.02 0h-10v-.94h10zm15.02 0h-10.02v-.94h10zm15 0h-10v-.94h10zm15.03 0h-10.02v-.94h10.03zm15 0h-10v-.94h10zm15.03 0h-10v-.94h10zm15.02 0h-10v-.94h10zm15.02 0h-10v-.94h10zm15.02 0h-10v-.94h10zm15.02 0h-10.02v-.94h10.02zm15 0h-10v-.94h10zm15.03 0h-10v-.94h10zm15.02 0h-10.02v-.94h10zm15 0h-10v-.94h10zm15.03 0h-10.02v-.94h10.03zm15 0h-10v-.94h10zm15.03 0h-10v-.94h10zm15.02 0h-10v-.94h10zm16.24-1.7l-.56.35-1.8.75-1.9.45-1.95.15h-5v-.94h4.97l1.83-.15 1.75-.42 1.67-.7.5-.3zm-902.3 1.7h-1.76v-.94h1.75zm908.55-12.45l-.15 1.93-.46 1.9-.75 1.8-.34.58-.8-.5.3-.5.7-1.67.4-1.76.16-1.82v-4.92h.95zm0-9.9h-.95v-9.9h.95zm0-14.83h-.95v-9.9h.95zm0-14.84h-.95v-9.88h.95zm0-14.83h-.95v-9.88h.95zm0-14.82h-.95v-9.88h.95zm0-14.82h-.95v-9.88h.95zm0-14.83h-.95v-9.88h.95zm0-14.82h-.95v-9.9h.95zm0-14.83h-.95v-9.9h.95zm0-14.83h-.95v-9.88h.95zm0-14.82h-.95v-9.9h.95zm0-14.83h-.95v-9.9h.95zm0-14.83h-.95v-9.9h.95zm0-14.84h-.95v-9.88h.95zm0-14.82h-.95v-9.9h.95zm0-14.83h-.95v-9.87h.95zm0-14.82h-.95V3161h.95zm0-14.82h-.95v-9.9h.95zm0-14.83h-.95v-9.9h.95zm0-14.83h-.95v-9.88h.95zm0-14.82h-.95v-9.9h.95zm0-14.83h-.95v-9.9h.95zm0-14.83h-.95v-9.88h.95zm0-14.83h-.95v-9.9h.95zm0-14.83h-.95v-4.95h.95z" stroke="#333" stroke-width=".05" fill="#333"/><path d="M-99 3430.47h-.5v-.94h.5z" fill="#333"/><path stroke="#333" stroke-width=".05" fill="#333"/><path d="M1317.2 3046.82h-15l7.5-13z" fill="#333"/><path d="M1318.02 3047.3h-16.65l8.32-14.4zm-15-.95h13.35l-6.68-11.57z" stroke="#333" stroke-width=".05" fill="#333"/><use xlink:href="#r" transform="matrix(1,0,0,1,218.63277002330258,3411.3333333333335) translate(0.0049999999999954525 24.888888888888893)"/><path d="M-94 3571.64h-5v-.95h5zm15.03 0H-89v-.95h10.03zm15.02 0h-10.02v-.95h10.02zm15.02 0h-10v-.95h10zm15.02 0h-10.02v-.95h10zm15 0h-10v-.95h10zm15.03 0h-10v-.95h10zm15.02 0h-10v-.95h10zm15.03 0H16.16v-.95h10.02zm15.02 0H31.18v-.95H41.2zm15.02 0H46.2v-.95h10.02zm15.02 0h-10l-.02-.95h10.02zm15.02 0h-10v-.95h10zm15.02 0h-10v-.95h10zm15.02 0h-10v-.95h10zm15.02 0h-10v-.95h10zm15.02 0h-10v-.95h10zm15.03 0h-10.02v-.95h10.02zm15.02 0h-10.03v-.95h10.02zm15 0h-10v-.95h10zm15.03 0H196.4v-.95h10.03zm15.02 0h-10v-.95h10zm15.02 0h-10v-.95h10zm15.02 0h-10.02v-.95h10zm5.02 0h-.02v-.95h.02zm205.27 0h-10.03v-.95h10.02zm15 0h-10v-.95h10zm15.03 0H481.8v-.95h10.03zm15.02 0h-10.02v-.95h10.02zm15.02 0h-10v-.95h10zm15.02 0h-10.02v-.95h10zm15 0h-10v-.95h10zm15.03 0h-10v-.95h10zm15.02 0h-10v-.95h10zm15.02 0h-10v-.95h10zm15.03 0h-10.02v-.95H612zm15.02 0H617v-.95h10.02zm15.02 0h-10v-.95h10zm15.02 0h-10v-.95h10zm15.02 0h-10v-.95h10zm15.02 0h-10v-.95h10zm15.02 0h-10v-.95h10zm15.02 0h-10v-.95h10zm15.02 0h-10v-.95h10zm15.03 0h-10.03v-.95h10.02zm15 0h-10v-.95h10zm15.03 0H767.2v-.95h10.03zm15.02 0h-10v-.95h10zm15.02 0h-10v-.95h10zm15.02 0h-10.02v-.95h10zm15 0h-10v-.95h10zm15.03 0h-10v-.95h10zm15.02 0h-10v-.95h10zm15.02 0h-10v-.95h10zm15.03 0h-10.02v-.95h10.02zm15.02 0H902.4v-.95h10.02zm15.02 0h-10.02v-.95h10.02zm15.02 0h-10v-.95h10zm15.02 0h-10v-.95h10zm15.02 0h-10v-.95h10zm15.02 0h-10v-.95h10zm15.02 0h-10v-.95h10zm15.03 0h-10.02v-.95h10.02zm15.02 0h-10.03v-.95h10.02zm15 0h-10v-.95h10zm15.03 0h-10.02v-.95h10.03zm15.02 0h-10.02v-.95h10.02zm15.02 0h-10v-.95h10zm15.02 0h-10.02v-.95h10zm15 0h-10v-.95h10zm15.03 0h-10v-.95h10zm15.02 0h-10v-.95h10zm15.03 0h-10.02v-.95h10.02zm15.02 0h-10.02v-.95h10.02zm15.02 0h-10.02v-.95h10.02zm15.02 0h-10v-.95h10zm15.02 0h-10v-.95h10zm15.02 0h-10v-.95h10zm15.02 0h-10v-.95h10zm15.02 0h-10v-.95h10zm15.02 0h-10v-.95h10zm15.02 0h-10v-.95h10zm15.03 0h-10.03v-.95H1318zm16.23-1.7l-.57.34-1.8.75-1.9.46-1.94.14H1323v-.95h4.98l1.82-.15 1.76-.43 1.67-.7.5-.3zm-887.47 1.7h-9.02v-.95h9.02zm893.7-12.46l-.14 1.93-.45 1.92-.75 1.8-.35.57-.8-.5.3-.5.7-1.68.4-1.75.16-1.82v-4.97h.94zm0-9.97h-.93v-9.95h.94zm0-14.93h-.93v-9.95h.94zm0-14.93h-.93v-9.96h.94zm0-14.94h-.93v-9.95h.94zm0-14.93h-.93v-9.96h.94zm0-14.94h-.93v-9.96h.94zm0-14.93h-.93v-9.96h.94zm0-14.94h-.93v-9.96h.94zm0-14.93h-.93v-9.96h.94zm0-14.94h-.93v-9.97h.94zm0-14.94h-.93v-9.96h.94zm0-14.94h-.93v-9.96h.94zm0-14.93h-.93v-9.97h.94zm0-14.95h-.93v-9.96h.94zm0-14.94h-.93v-9.94h.94zm0-14.92h-.93v-9.96h.94zm0-14.93h-.93v-9.96h.94zm0-14.94h-.93v-9.95h.94zm0-14.93h-.93v-9.95h.94zm0-14.93h-.93v-9.96h.94zm0-14.93h-.93v-9.95h.94zm0-14.93h-.93v-9.96h.94zm0-14.94h-.93v-9.95h.94zm0-14.93h-.93v-9.96h.94zm0-14.94h-.93v-9.95h.94zm0-14.93h-.93v-9.96h.94zm0-14.94h-.93v-9.96h.94zm0-14.94h-.93V3136h.94zm0-14.94h-.93v-9.95h.94zm0-14.93h-.93v-9.97h.94zm0-14.95h-.93v-9.95h.94zm0-14.93h-.93v-9.96h.94zm0-14.94h-.93v-9.95h.94zm0-14.93h-.93v-4.98h.94z" stroke="#333" stroke-width=".05" fill="#333"/><path d="M-99 3571.64h-.5v-.94h.5z" fill="#333"/><path stroke="#333" stroke-width=".05" fill="#333"/><path d="M1347.5 3050.87h-15l7.5-13z" fill="#333"/><path d="M1348.32 3051.34h-16.64l8.32-14.4zm-15-.95h13.36l-6.68-11.57z" stroke="#333" stroke-width=".05" fill="#333"/><use xlink:href="#r" transform="matrix(1,0,0,1,256.51800163099915,3552.4967172255506) translate(0.0049999999999954525 24.888888888888893)"/><path d="M140 3178.94c0 40.22-53.73 72.82-120 72.82-66.27 0-120-32.6-120-72.82 0-40.2 53.73-72.8 120-72.8 66.27 0 120 32.6 120 72.8z" stroke="#000" fill="#4d9eff"/><use xlink:href="#z" transform="matrix(1,0,0,1,-64,3135.252210589782) translate(-8.166666666666671 50.22222222222222)"/><path d="M-787.58 2958.55l663.34-420.8M-787.57 2958.55l-2.96 1.88" stroke="#333" fill="none"/><path d="M-112.84 2530.54l-6.96 13.3-8.03-12.68z" stroke="#333" fill="#333"/><path d="M-787.52 2958.98l673.22 215.54M-787.5 2958.98l-3.36-1.07" stroke="#333" fill="none"/><path d="M-101.45 3178.64l-14.66 3.18 4.56-14.3z" stroke="#333" fill="#333"/><path d="M-807.53 3598.65l453.4-163.73M-807.52 3598.65l-3.3 1.2" stroke="#333" fill="none"/><path d="M-341.44 3430.34l-9.67 11.47-5.1-14.1z" stroke="#333" fill="#333"/><path d="M-807.5 3598.8l452.54-26.78M-807.5 3598.8l-3.5.2" stroke="#333" fill="none"/><path d="M-341.5 3571.22l-12.52 8.26-.9-14.98z" stroke="#333" fill="#333"/><path d="M-807.5 3599.15l460.73 85.5M-807.5 3599.16l-3.45-.64" stroke="#333" fill="none"/><path d="M-333.5 3687.12l-14.15 5 2.74-14.75z" stroke="#333" fill="#333"/><path d="M-807.56 3599.06l474.23 249.03M-807.55 3599.06l-3.1-1.63" stroke="#333" fill="none"/><path d="M-321.4 3854.37l-14.97.6 6.97-13.28z" stroke="#333" fill="#333"/><path d="M110 2530c0 38.66-49.25 70-110 70s-110-31.34-110-70 49.25-70 110-70 110 31.34 110 70z" stroke="#000" stroke-width="4" fill="#4d9eff"/><use xlink:href="#A" transform="matrix(1,0,0,1,-77,2488) translate(19.185185185185183 29.55555555555555)"/><use xlink:href="#B" transform="matrix(1,0,0,1,-77,2488) translate(2.808641975308632 66.88888888888889)"/><use xlink:href="#C" transform="matrix(1,0,0,1,-77,2488) translate(42.388888888888886 66.88888888888889)"/><path d="M-787.5 2558.8l655.87-19.37c-.08-2.76 2.1-5.07 4.85-5.15 2.76-.08 5.07 2.1 5.15 4.85l9.97-.3M-787.5 2558.8l-3.5.1" stroke="#333" fill="none"/><path d="M-111.07 2539.3h-.6l-.02-.94h.45z" stroke="#333" stroke-width=".05" fill="#333"/><path d="M720 2530c0 38.66-49.25 70-110 70s-110-31.34-110-70 49.25-70 110-70 110 31.34 110 70z" stroke="#000" stroke-width="4" fill="#4d9eff"/><use xlink:href="#D" transform="matrix(1,0,0,1,533,2488) translate(52.888888888888886 29.55555555555555)"/><use xlink:href="#E" transform="matrix(1,0,0,1,533,2488) translate(26.098765432098766 66.88888888888889)"/><path d="M1340.47 2841.62h-.94v-5h.94zm0-10h-.94v-9.98h.94zm0-14.97h-.94v-10h.94zm0-14.98h-.94v-10h.94zm0-14.98h-.94v-10h.94zm0-15h-.94v-9.98h.94zm0-14.97h-.94v-10h.94zm0-15h-.94v-9.97h.94zm0-14.97h-.94v-9.98h.94zm0-14.98h-.94v-10h.94zm0-14.98h-.94v-10h.94zm0-14.98h-.94v-10h.94zm0-14.98h-.94v-10h.94zm0-14.98h-.94v-10h.94zm0-14.98h-.94v-10h.94zm0-14.98h-.94v-10h.94zm0-14.98h-.94v-10h.94zm0-14.98h-.94v-10h.94zm0-15h-.94V2567h.94zm0-14.97h-.94V2552h.94zm-1.35-25.63l.75 1.8.45 1.9.15 1.94v5h-.94v-4.96l-.15-1.82-.42-1.76-.7-1.67-.3-.5.8-.5zm-9.17-6.66l1.9.45 1.8.75.58.35-.5.8-.5-.3-1.67-.7-1.76-.4-1.82-.16h-5.03v-.94h5.07zm-602.4.8h-5.05v-.95h5.05zm15.13 0h-10.1v-.95h10.1zm15.14 0h-10.1v-.95h10.1zm15.14 0h-10.1v-.95h10.1zm15.14 0H778v-.95h10.1zm15.13 0h-10.1v-.95h10.1zm15.14 0h-10.1v-.95h10.1zm15.14 0h-10.08v-.95h10.1zm15.15 0h-10.1v-.95h10.1zm15.13 0h-10.1v-.95h10.1zm15.14 0h-10.1v-.95h10.1zm15.14 0h-10.1v-.95h10.1zm15.14 0h-10.1v-.95h10.1zm15.13 0h-10.1v-.95h10.1zm15.14 0h-10.1v-.95h10.1zm15.14 0h-10.08v-.95h10.1zm15.15 0h-10.1v-.95h10.1zm15.13 0h-10.1v-.95h10.1zm15.14 0h-10.1v-.95h10.1zm15.14 0h-10.1v-.95h10.1zm15.14 0h-10.1v-.95h10.1zm15.13 0h-10.1v-.95h10.1zm15.14 0h-10.1v-.95h10.1zm15.14 0h-10.08v-.95h10.1zm15.15 0h-10.1v-.95h10.1zm13.54 0h-8.5v-.95h8.5zm198.37 0h-10.1v-.95h10.1zm15.14 0h-10.08v-.95h10.1zm-30.27 0h-2.02v-.95h2.03z" stroke="#333" stroke-width=".05" fill="#333"/><path d="M722.5 2530.47h-.5V2529.55h.5z" fill="#333"/><path stroke="#333" stroke-width=".05" fill="#333"/><path d="M1340 2856.38l-4.63-14.26h9.27z" fill="#333"/><path d="M1340 2857.92l-5.3-16.28h10.6zm-3.98-15.33l3.98 12.24 3.98-12.25z" stroke="#333" stroke-width=".05" fill="#333"/><g><use xlink:href="#r" transform="matrix(1,0,0,1,1104.3889151546764,2511.3333333333335) translate(0.0049999999999954525 24.888888888888893)"/></g><path d="M131.44 2530.47h-4.95v-.94h4.94zm14.84 0h-9.9v-.94h9.9zm14.84 0h-9.9v-.94h9.9zm14.84 0h-9.9v-.94h9.9zm14.84 0h-9.9v-.94h9.9zm14.84 0h-9.9v-.94h9.9zm14.84 0h-9.9v-.94h9.9zm14.84 0h-9.9v-.94h9.9zm14.84 0h-9.9v-.94h9.9zm14.84 0h-9.9v-.94h9.9zm8.7 0h-3.75v-.94h3.75zm184.23 0h-9.9v-.94h9.9zm14.84 0h-9.9v-.94h9.9zm14.84 0h-9.9v-.94h9.9zm9.9 0h-4.95v-.94h4.95zm-54.42 0h-3.46v-.94h3.46z" stroke="#333" stroke-width=".05" fill="#333"/><path d="M126 2537.5l-13-7.5 13-7.5z" fill="#333"/><path d="M126.47 2538.32l-14.42-8.32 14.42-8.32zm-12.52-8.32l11.57 6.68v-13.36z" stroke="#333" stroke-width=".05" fill="#333"/><path d="M498 2530v.47h-.5v-.94h.5z" fill="#333"/><path stroke="#333" stroke-width=".05" fill="#333"/><g><use xlink:href="#F" transform="matrix(1,0,0,1,273.69738955114155,2511.3333333333335) translate(0.0049999999999954525 24.888888888888893)"/></g><path d="M130 2720.2c0 44.3-53.73 80.2-120 80.2-66.27 0-120-35.9-120-80.2 0-44.3 53.73-80.2 120-80.2 66.27 0 120 35.9 120 80.2z" stroke="#000" fill="#4d9eff"/><g><use xlink:href="#G" transform="matrix(1,0,0,1,-74,2672.082001326683) translate(8.944444444444429 36.05555555555555)"/><use xlink:href="#H" transform="matrix(1,0,0,1,-74,2672.082001326683) translate(117.74691358024691 36.05555555555555)"/><use xlink:href="#I" transform="matrix(1,0,0,1,-74,2672.082001326683) translate(20.135802469135797 73.38888888888889)"/><use xlink:href="#v" transform="matrix(1,0,0,1,-74,2672.082001326683) translate(46.06172839506173 73.38888888888889)"/></g><path d="M-787.53 2958.66l663.36-233.64M-787.52 2958.65l-3.3 1.17" stroke="#333" fill="none"/><path d="M-111.44 2720.54l-9.76 11.4-5-14.16z" stroke="#333" fill="#333"/><defs><path d="M205 0l-28-72H64L36 0H1l101-248h38L239 0h-34zm-38-99l-47-123c-12 45-31 82-46 123h93" id="J"/><path d="M96-169c-40 0-48 33-48 73s9 75 48 75c24 0 41-14 43-38l32 2c-6 37-31 61-74 61-59 0-76-41-82-99-10-93 101-131 147-64 4 7 5 14 7 22l-32 3c-4-21-16-35-41-35" id="K"/><path d="M59-47c-2 24 18 29 38 22v24C64 9 27 4 27-40v-127H5v-23h24l9-43h21v43h35v23H59v120" id="L"/><path d="M100-194c62-1 85 37 85 99 1 63-27 99-86 99S16-35 15-95c0-66 28-99 85-99zM99-20c44 1 53-31 53-75 0-43-8-75-51-75s-53 32-53 75 10 74 51 75" id="M"/><path d="M114-163C36-179 61-72 57 0H25l-1-190h30c1 12-1 29 2 39 6-27 23-49 58-41v29" id="N"/><g id="a"><use transform="matrix(0.06234567901234565,0,0,0.06234567901234565,0,0)" xlink:href="#J"/><use transform="matrix(0.06234567901234565,0,0,0.06234567901234565,14.962962962962957,0)" xlink:href="#K"/><use transform="matrix(0.06234567901234565,0,0,0.06234567901234565,26.185185185185176,0)" xlink:href="#L"/><use transform="matrix(0.06234567901234565,0,0,0.06234567901234565,32.41975308641974,0)" xlink:href="#M"/><use transform="matrix(0.06234567901234565,0,0,0.06234567901234565,44.88888888888887,0)" xlink:href="#N"/></g><path d="M169-182c-1-43-94-46-97-3 18 66 151 10 154 114 3 95-165 93-204 36-6-8-10-19-12-30l50-8c3 46 112 56 116 5-17-69-150-10-154-114-4-87 153-88 188-35 5 8 8 18 10 28" id="O"/><path d="M123 10C108 53 80 86 19 72V37c35 8 53-11 59-39L3-190h52l48 148c12-52 28-100 44-148h51" id="P"/><path d="M137-138c1-29-70-34-71-4 15 46 118 7 119 86 1 83-164 76-172 9l43-7c4 19 20 25 44 25 33 8 57-30 24-41C81-84 22-81 20-136c-2-80 154-74 161-7" id="Q"/><path d="M115-3C79 11 28 4 28-45v-112H4v-33h27l15-45h31v45h36v33H77v99c-1 23 16 31 38 25v30" id="R"/><path d="M185-48c-13 30-37 53-82 52C43 2 14-33 14-96s30-98 90-98c62 0 83 45 84 108H66c0 31 8 55 39 56 18 0 30-7 34-22zm-45-69c5-46-57-63-70-21-2 6-4 13-4 21h74" id="S"/><path d="M220-157c-53 9-28 100-34 157h-49v-107c1-27-5-49-29-50C55-147 81-57 75 0H25l-1-190h47c2 12-1 28 3 38 10-53 101-56 108 0 13-22 24-43 59-42 82 1 51 116 57 194h-49v-107c-1-25-5-48-29-50" id="T"/><g id="b"><use transform="matrix(0.08641975308641976,0,0,0.08641975308641976,0,0)" xlink:href="#O"/><use transform="matrix(0.08641975308641976,0,0,0.08641975308641976,20.740740740740744,0)" xlink:href="#P"/><use transform="matrix(0.08641975308641976,0,0,0.08641975308641976,38.0246913580247,0)" xlink:href="#Q"/><use transform="matrix(0.08641975308641976,0,0,0.08641975308641976,55.308641975308646,0)" xlink:href="#R"/><use transform="matrix(0.08641975308641976,0,0,0.08641975308641976,65.5925925925926,0)" xlink:href="#S"/><use transform="matrix(0.08641975308641976,0,0,0.08641975308641976,82.87654320987654,0)" xlink:href="#T"/></g><path d="M135-194c53 0 70 44 70 98 0 56-19 98-73 100-31 1-45-17-59-34 3 33 2 69 2 105H25l-1-265h48c2 10 0 23 3 31 11-24 29-35 60-35zM114-30c33 0 39-31 40-66 0-38-9-64-40-64-56 0-55 130 0 130" id="U"/><path d="M25 0v-261h50V0H25" id="V"/><path d="M133-34C117-15 103 5 69 4 32 3 11-16 11-54c-1-60 55-63 116-61 1-26-3-47-28-47-18 1-26 9-28 27l-52-2c7-38 36-58 82-57s74 22 75 68l1 82c-1 14 12 18 25 15v27c-30 8-71 5-69-32zm-48 3c29 0 43-24 42-57-32 0-66-3-65 30 0 17 8 27 23 27" id="W"/><path d="M121-226c-27-7-43 5-38 36h38v33H83V0H34v-157H6v-33h28c-9-59 32-81 87-68v32" id="X"/><path d="M110-194c64 0 96 36 96 99 0 64-35 99-97 99-61 0-95-36-95-99 0-62 34-99 96-99zm-1 164c35 0 45-28 45-65 0-40-10-65-43-65-34 0-45 26-45 65 0 36 10 65 43 65" id="Y"/><path d="M135-150c-39-12-60 13-60 57V0H25l-1-190h47c2 13-1 29 3 40 6-28 27-53 61-41v41" id="Z"/><g id="c"><use transform="matrix(0.08641975308641976,0,0,0.08641975308641976,0,0)" xlink:href="#U"/><use transform="matrix(0.08641975308641976,0,0,0.08641975308641976,18.925925925925927,0)" xlink:href="#V"/><use transform="matrix(0.08641975308641976,0,0,0.08641975308641976,27.567901234567906,0)" xlink:href="#W"/><use transform="matrix(0.08641975308641976,0,0,0.08641975308641976,44.85185185185187,0)" xlink:href="#R"/><use transform="matrix(0.08641975308641976,0,0,0.08641975308641976,55.13580246913581,0)" xlink:href="#S"/><use transform="matrix(0.08641975308641976,0,0,0.08641975308641976,72.41975308641976,0)" xlink:href="#X"/><use transform="matrix(0.08641975308641976,0,0,0.08641975308641976,82.70370370370371,0)" xlink:href="#Y"/><use transform="matrix(0.08641975308641976,0,0,0.08641975308641976,101.62962962962963,0)" xlink:href="#Z"/><use transform="matrix(0.08641975308641976,0,0,0.08641975308641976,113.7283950617284,0)" xlink:href="#T"/><use transform="matrix(0.08641975308641976,0,0,0.08641975308641976,141.38271604938274,0)" xlink:href="#S"/></g><path d="M88-194c31-1 46 15 58 34l-1-101h50l1 261h-48c-2-10 0-23-3-31C134-8 116 4 84 4 32 4 16-41 15-95c0-56 19-97 73-99zm17 164c33 0 40-30 41-66 1-37-9-64-41-64s-38 30-39 65c0 43 13 65 39 65" id="aa"/><g id="d"><use transform="matrix(0.08641975308641976,0,0,0.08641975308641976,0,0)" xlink:href="#aa"/><use transform="matrix(0.08641975308641976,0,0,0.08641975308641976,18.925925925925927,0)" xlink:href="#S"/></g><path d="M190-63c-7 42-38 67-86 67-59 0-84-38-90-98-12-110 154-137 174-36l-49 2c-2-19-15-32-35-32-30 0-35 28-38 64-6 74 65 87 74 30" id="ab"/><path d="M85 4C-2 5 27-109 22-190h50c7 57-23 150 33 157 60-5 35-97 40-157h50l1 190h-47c-2-12 1-28-3-38-12 25-28 42-61 42" id="ac"/><g id="e"><use transform="matrix(0.08641975308641976,0,0,0.08641975308641976,0,0)" xlink:href="#ab"/><use transform="matrix(0.08641975308641976,0,0,0.08641975308641976,17.283950617283953,0)" xlink:href="#Y"/><use transform="matrix(0.08641975308641976,0,0,0.08641975308641976,36.20987654320988,0)" xlink:href="#ac"/><use transform="matrix(0.08641975308641976,0,0,0.08641975308641976,55.13580246913581,0)" xlink:href="#Z"/><use transform="matrix(0.08641975308641976,0,0,0.08641975308641976,67.23456790123458,0)" xlink:href="#Q"/></g><path d="M135-194c87-1 58 113 63 194h-50c-7-57 23-157-34-157-59 0-34 97-39 157H25l-1-190h47c2 12-1 28 3 38 12-26 28-41 61-42" id="ad"/><g id="f"><use transform="matrix(0.08641975308641976,0,0,0.08641975308641976,0,0)" xlink:href="#S"/><use transform="matrix(0.08641975308641976,0,0,0.08641975308641976,17.283950617283953,0)" xlink:href="#ad"/></g><path d="M25-224v-37h50v37H25zM25 0v-190h50V0H25" id="ae"/><path d="M195-6C206 82 75 100 31 46c-4-6-6-13-8-21l49-6c3 16 16 24 34 25 40 0 42-37 40-79-11 22-30 35-61 35-53 0-70-43-70-97 0-56 18-96 73-97 30 0 46 14 59 34l2-30h47zm-90-29c32 0 41-27 41-63 0-35-9-62-40-62-32 0-39 29-40 63 0 36 9 62 39 62" id="af"/><g id="g"><use transform="matrix(0.08641975308641976,0,0,0.08641975308641976,0,0)" xlink:href="#V"/><use transform="matrix(0.08641975308641976,0,0,0.08641975308641976,8.641975308641976,0)" xlink:href="#ae"/><use transform="matrix(0.08641975308641976,0,0,0.08641975308641976,17.283950617283953,0)" xlink:href="#af"/><use transform="matrix(0.08641975308641976,0,0,0.08641975308641976,36.20987654320988,0)" xlink:href="#ad"/><use transform="matrix(0.08641975308641976,0,0,0.08641975308641976,55.13580246913581,0)" xlink:href="#S"/></g><path d="M84 4C-5 8 30-112 23-190h32v120c0 31 7 50 39 49 72-2 45-101 50-169h31l1 190h-30c-1-10 1-25-2-33-11 22-28 36-60 37" id="ag"/><path d="M106-169C34-169 62-67 57 0H25v-261h32l-1 103c12-21 28-36 61-36 89 0 53 116 60 194h-32v-121c2-32-8-49-39-48" id="ah"/><path d="M117-194c89-4 53 116 60 194h-32v-121c0-31-8-49-39-48C34-167 62-67 57 0H25l-1-190h30c1 10-1 24 2 32 11-22 29-35 61-36" id="ai"/><path d="M24-231v-30h32v30H24zM24 0v-190h32V0H24" id="aj"/><path d="M101-234c-31-9-42 10-38 44h38v23H63V0H32v-167H5v-23h27c-7-52 17-82 69-68v24" id="ak"/><path d="M141-36C126-15 110 5 73 4 37 3 15-17 15-53c-1-64 63-63 125-63 3-35-9-54-41-54-24 1-41 7-42 31l-33-3c5-37 33-52 76-52 45 0 72 20 72 64v82c-1 20 7 32 28 27v20c-31 9-61-2-59-35zM48-53c0 20 12 33 32 33 41-3 63-29 60-74-43 2-92-5-92 41" id="al"/><g id="h"><use transform="matrix(0.07407407407407408,0,0,0.07407407407407408,0,0)" xlink:href="#J"/><use transform="matrix(0.07407407407407408,0,0,0.07407407407407408,17.77777777777778,0)" xlink:href="#ag"/><use transform="matrix(0.07407407407407408,0,0,0.07407407407407408,32.592592592592595,0)" xlink:href="#L"/><use transform="matrix(0.07407407407407408,0,0,0.07407407407407408,40,0)" xlink:href="#ah"/><use transform="matrix(0.07407407407407408,0,0,0.07407407407407408,54.81481481481482,0)" xlink:href="#M"/><use transform="matrix(0.07407407407407408,0,0,0.07407407407407408,69.62962962962963,0)" xlink:href="#ai"/><use transform="matrix(0.07407407407407408,0,0,0.07407407407407408,84.44444444444446,0)" xlink:href="#L"/><use transform="matrix(0.07407407407407408,0,0,0.07407407407407408,91.85185185185186,0)" xlink:href="#aj"/><use transform="matrix(0.07407407407407408,0,0,0.07407407407407408,97.70370370370371,0)" xlink:href="#ak"/><use transform="matrix(0.07407407407407408,0,0,0.07407407407407408,105.11111111111111,0)" xlink:href="#aj"/><use transform="matrix(0.07407407407407408,0,0,0.07407407407407408,110.96296296296296,0)" xlink:href="#K"/><use transform="matrix(0.07407407407407408,0,0,0.07407407407407408,124.29629629629632,0)" xlink:href="#al"/><use transform="matrix(0.07407407407407408,0,0,0.07407407407407408,139.11111111111111,0)" xlink:href="#L"/><use transform="matrix(0.07407407407407408,0,0,0.07407407407407408,146.51851851851853,0)" xlink:href="#aj"/><use transform="matrix(0.07407407407407408,0,0,0.07407407407407408,152.37037037037038,0)" xlink:href="#M"/><use transform="matrix(0.07407407407407408,0,0,0.07407407407407408,167.18518518518522,0)" xlink:href="#ai"/></g><path d="M127-220V0H93v-220H8v-28h204v28h-85" id="am"/><path d="M100-194c63 0 86 42 84 106H49c0 40 14 67 53 68 26 1 43-12 49-29l28 8c-11 28-37 45-77 45C44 4 14-33 15-96c1-61 26-98 85-98zm52 81c6-60-76-77-97-28-3 7-6 17-6 28h103" id="an"/><g id="i"><use transform="matrix(0.06234567901234565,0,0,0.06234567901234565,0,0)" xlink:href="#am"/><use transform="matrix(0.06234567901234565,0,0,0.06234567901234565,11.159876543209872,0)" xlink:href="#an"/><use transform="matrix(0.06234567901234565,0,0,0.06234567901234565,23.629012345679,0)" xlink:href="#al"/><use transform="matrix(0.06234567901234565,0,0,0.06234567901234565,36.098148148148134,0)" xlink:href="#K"/><use transform="matrix(0.06234567901234565,0,0,0.06234567901234565,47.320370370370355,0)" xlink:href="#ah"/><use transform="matrix(0.06234567901234565,0,0,0.06234567901234565,59.78950617283949,0)" xlink:href="#an"/><use transform="matrix(0.06234567901234565,0,0,0.06234567901234565,72.25864197530862,0)" xlink:href="#N"/></g><path fill="#3a414a" d="M128 0H69L1-190h53L99-40l48-150h52" id="ao"/><path fill="#3a414a" d="M25-224v-37h50v37H25zM25 0v-190h50V0H25" id="ap"/><path fill="#3a414a" d="M185-48c-13 30-37 53-82 52C43 2 14-33 14-96s30-98 90-98c62 0 83 45 84 108H66c0 31 8 55 39 56 18 0 30-7 34-22zm-45-69c5-46-57-63-70-21-2 6-4 13-4 21h74" id="aq"/><path fill="#3a414a" d="M231 0h-52l-39-155L100 0H48L-1-190h46L77-45c9-52 24-97 36-145h53l37 145 32-145h46" id="ar"/><g id="j"><use transform="matrix(0.08641975308641976,0,0,0.08641975308641976,0,0)" xlink:href="#ao"/><use transform="matrix(0.08641975308641976,0,0,0.08641975308641976,17.283950617283953,0)" xlink:href="#ap"/><use transform="matrix(0.08641975308641976,0,0,0.08641975308641976,25.925925925925927,0)" xlink:href="#aq"/><use transform="matrix(0.08641975308641976,0,0,0.08641975308641976,43.20987654320989,0)" xlink:href="#ar"/></g><path fill="#3a414a" d="M137-138c1-29-70-34-71-4 15 46 118 7 119 86 1 83-164 76-172 9l43-7c4 19 20 25 44 25 33 8 57-30 24-41C81-84 22-81 20-136c-2-80 154-74 161-7" id="as"/><path fill="#3a414a" d="M115-3C79 11 28 4 28-45v-112H4v-33h27l15-45h31v45h36v33H77v99c-1 23 16 31 38 25v30" id="at"/><path fill="#3a414a" d="M133-34C117-15 103 5 69 4 32 3 11-16 11-54c-1-60 55-63 116-61 1-26-3-47-28-47-18 1-26 9-28 27l-52-2c7-38 36-58 82-57s74 22 75 68l1 82c-1 14 12 18 25 15v27c-30 8-71 5-69-32zm-48 3c29 0 43-24 42-57-32 0-66-3-65 30 0 17 8 27 23 27" id="au"/><path fill="#3a414a" d="M190-63c-7 42-38 67-86 67-59 0-84-38-90-98-12-110 154-137 174-36l-49 2c-2-19-15-32-35-32-30 0-35 28-38 64-6 74 65 87 74 30" id="av"/><g id="k"><use transform="matrix(0.08641975308641976,0,0,0.08641975308641976,0,0)" xlink:href="#as"/><use transform="matrix(0.08641975308641976,0,0,0.08641975308641976,17.283950617283953,0)" xlink:href="#at"/><use transform="matrix(0.08641975308641976,0,0,0.08641975308641976,27.567901234567906,0)" xlink:href="#au"/><use transform="matrix(0.08641975308641976,0,0,0.08641975308641976,44.85185185185187,0)" xlink:href="#at"/><use transform="matrix(0.08641975308641976,0,0,0.08641975308641976,55.13580246913581,0)" xlink:href="#ap"/><use transform="matrix(0.08641975308641976,0,0,0.08641975308641976,63.777777777777786,0)" xlink:href="#as"/><use transform="matrix(0.08641975308641976,0,0,0.08641975308641976,81.06172839506173,0)" xlink:href="#at"/><use transform="matrix(0.08641975308641976,0,0,0.08641975308641976,91.34567901234568,0)" xlink:href="#ap"/><use transform="matrix(0.08641975308641976,0,0,0.08641975308641976,99.98765432098766,0)" xlink:href="#av"/><use transform="matrix(0.08641975308641976,0,0,0.08641975308641976,117.27160493827162,0)" xlink:href="#as"/></g><path d="M185-189c-5-48-123-54-124 2 14 75 158 14 163 119 3 78-121 87-175 55-17-10-28-26-33-46l33-7c5 56 141 63 141-1 0-78-155-14-162-118-5-82 145-84 179-34 5 7 8 16 11 25" id="aw"/><path d="M85-194c31 0 48 13 60 33l-1-100h32l1 261h-30c-2-10 0-23-3-31C134-8 116 4 85 4 32 4 16-35 15-94c0-66 23-100 70-100zm9 24c-40 0-46 34-46 75 0 40 6 74 45 74 42 0 51-32 51-76 0-42-9-74-50-73" id="ax"/><g id="l"><use transform="matrix(0.06234567901234565,0,0,0.06234567901234565,0,0)" xlink:href="#aw"/><use transform="matrix(0.06234567901234565,0,0,0.06234567901234565,14.962962962962957,0)" xlink:href="#L"/><use transform="matrix(0.06234567901234565,0,0,0.06234567901234565,21.19753086419752,0)" xlink:href="#ag"/><use transform="matrix(0.06234567901234565,0,0,0.06234567901234565,33.66666666666665,0)" xlink:href="#ax"/><use transform="matrix(0.06234567901234565,0,0,0.06234567901234565,46.13580246913578,0)" xlink:href="#an"/><use transform="matrix(0.06234567901234565,0,0,0.06234567901234565,58.604938271604915,0)" xlink:href="#ai"/><use transform="matrix(0.06234567901234565,0,0,0.06234567901234565,71.07407407407405,0)" xlink:href="#L"/></g><path d="M232-93c-1 65-40 97-104 97C67 4 28-28 28-90v-158h33c8 89-33 224 67 224 102 0 64-133 71-224h33v155" id="ay"/><path d="M135-143c-3-34-86-38-87 0 15 53 115 12 119 90S17 21 10-45l28-5c4 36 97 45 98 0-10-56-113-15-118-90-4-57 82-63 122-42 12 7 21 19 24 35" id="az"/><g id="m"><use transform="matrix(0.06234567901234565,0,0,0.06234567901234565,0,0)" xlink:href="#ay"/><use transform="matrix(0.06234567901234565,0,0,0.06234567901234565,16.147530864197524,0)" xlink:href="#az"/><use transform="matrix(0.06234567901234565,0,0,0.06234567901234565,27.369753086419742,0)" xlink:href="#an"/><use transform="matrix(0.06234567901234565,0,0,0.06234567901234565,39.838888888888874,0)" xlink:href="#N"/></g><path fill="#3a414a" d="M67-125c0 53 21 87 73 88 37 1 54-22 65-47l45 17C233-25 199 4 140 4 58 4 20-42 15-125 8-235 124-281 211-232c18 10 29 29 36 50l-46 12c-8-25-30-41-62-41-52 0-71 34-72 86" id="aA"/><path fill="#3a414a" d="M240-174c0 40-23 61-54 70L253 0h-59l-57-94H76V0H24v-248c93 4 217-23 216 74zM76-134c48-2 112 12 112-38 0-48-66-32-112-35v73" id="aB"/><path fill="#3a414a" d="M24 0v-248h195v40H76v63h132v40H76v65h150V0H24" id="aC"/><path fill="#3a414a" d="M136-208V0H84v-208H4v-40h212v40h-80" id="aD"/><path fill="#3a414a" d="M199 0l-22-63H83L61 0H9l90-248h61L250 0h-51zm-33-102l-36-108c-10 38-24 72-36 108h72" id="aE"/><g id="n"><use transform="matrix(0.08641975308641976,0,0,0.08641975308641976,0,0)" xlink:href="#aA"/><use transform="matrix(0.08641975308641976,0,0,0.08641975308641976,22.38271604938272,0)" xlink:href="#aB"/><use transform="matrix(0.08641975308641976,0,0,0.08641975308641976,44.76543209876544,0)" xlink:href="#aC"/><use transform="matrix(0.08641975308641976,0,0,0.08641975308641976,65.50617283950618,0)" xlink:href="#aD"/><use transform="matrix(0.08641975308641976,0,0,0.08641975308641976,82.09876543209877,0)" xlink:href="#aE"/><use transform="matrix(0.08641975308641976,0,0,0.08641975308641976,104.4814814814815,0)" xlink:href="#aC"/></g><path fill="#3a414a" d="M140-251c80 0 125 45 125 126S219 4 139 4C58 4 15-44 15-125s44-126 125-126zm-1 214c52 0 73-35 73-88 0-50-21-86-72-86-52 0-73 35-73 86s22 88 72 88" id="aF"/><path fill="#3a414a" d="M238-95c0 69-44 99-111 99C63 4 22-25 22-93v-155h51v151c-1 38 19 59 55 60 90 1 49-130 58-211h52v153" id="aG"/><path fill="#3a414a" d="M169-182c-1-43-94-46-97-3 18 66 151 10 154 114 3 95-165 93-204 36-6-8-10-19-12-30l50-8c3 46 112 56 116 5-17-69-150-10-154-114-4-87 153-88 188-35 5 8 8 18 10 28" id="aH"/><g id="o"><use transform="matrix(0.08641975308641976,0,0,0.08641975308641976,0,0)" xlink:href="#aA"/><use transform="matrix(0.08641975308641976,0,0,0.08641975308641976,22.38271604938272,0)" xlink:href="#aF"/><use transform="matrix(0.08641975308641976,0,0,0.08641975308641976,46.580246913580254,0)" xlink:href="#aG"/><use transform="matrix(0.08641975308641976,0,0,0.08641975308641976,68.96296296296298,0)" xlink:href="#aB"/><use transform="matrix(0.08641975308641976,0,0,0.08641975308641976,91.34567901234568,0)" xlink:href="#aH"/><use transform="matrix(0.08641975308641976,0,0,0.08641975308641976,112.08641975308645,0)" xlink:href="#aC"/></g><path fill="#3a414a" d="M24-248c120-7 223 5 221 122C244-46 201 0 124 0H24v-248zM76-40c74 7 117-18 117-86 0-67-45-88-117-82v168" id="aI"/><path fill="#3a414a" d="M24 0v-248h52v208h133V0H24" id="aJ"/><g id="p"><use transform="matrix(0.08641975308641976,0,0,0.08641975308641976,0,0)" xlink:href="#aI"/><use transform="matrix(0.08641975308641976,0,0,0.08641975308641976,22.38271604938272,0)" xlink:href="#aC"/><use transform="matrix(0.08641975308641976,0,0,0.08641975308641976,43.12345679012346,0)" xlink:href="#aJ"/><use transform="matrix(0.08641975308641976,0,0,0.08641975308641976,62.04938271604939,0)" xlink:href="#aC"/><use transform="matrix(0.08641975308641976,0,0,0.08641975308641976,82.79012345679014,0)" xlink:href="#aD"/><use transform="matrix(0.08641975308641976,0,0,0.08641975308641976,101.71604938271606,0)" xlink:href="#aC"/></g><path fill="#3a414a" d="M24 0v-248h52V0H24" id="aK"/><g id="q"><use transform="matrix(0.08641975308641976,0,0,0.08641975308641976,0,0)" xlink:href="#aC"/><use transform="matrix(0.08641975308641976,0,0,0.08641975308641976,20.740740740740744,0)" xlink:href="#aI"/><use transform="matrix(0.08641975308641976,0,0,0.08641975308641976,43.12345679012346,0)" xlink:href="#aK"/><use transform="matrix(0.08641975308641976,0,0,0.08641975308641976,51.76543209876544,0)" xlink:href="#aD"/></g><path d="M15-91v-56l181-69v40L49-119l147 57v40" id="aL"/><path d="M15-22v-40l146-57-146-57v-40l181 69v56" id="aM"/><g id="r"><use transform="matrix(0.08641975308641976,0,0,0.08641975308641976,0,0)" xlink:href="#aL"/><use transform="matrix(0.08641975308641976,0,0,0.08641975308641976,18.14814814814815,0)" xlink:href="#aL"/><use transform="matrix(0.08641975308641976,0,0,0.08641975308641976,36.2962962962963,0)" xlink:href="#ae"/><use transform="matrix(0.08641975308641976,0,0,0.08641975308641976,44.93827160493828,0)" xlink:href="#ad"/><use transform="matrix(0.08641975308641976,0,0,0.08641975308641976,63.8641975308642,0)" xlink:href="#ab"/><use transform="matrix(0.08641975308641976,0,0,0.08641975308641976,81.14814814814815,0)" xlink:href="#V"/><use transform="matrix(0.08641975308641976,0,0,0.08641975308641976,89.79012345679013,0)" xlink:href="#ac"/><use transform="matrix(0.08641975308641976,0,0,0.08641975308641976,108.71604938271604,0)" xlink:href="#aa"/><use transform="matrix(0.08641975308641976,0,0,0.08641975308641976,127.64197530864197,0)" xlink:href="#S"/><use transform="matrix(0.08641975308641976,0,0,0.08641975308641976,144.92592592592592,0)" xlink:href="#aM"/><use transform="matrix(0.08641975308641976,0,0,0.08641975308641976,163.07407407407408,0)" xlink:href="#aM"/></g><g id="s"><use transform="matrix(0.08641975308641976,0,0,0.08641975308641976,0,0)" xlink:href="#aL"/><use transform="matrix(0.08641975308641976,0,0,0.08641975308641976,18.14814814814815,0)" xlink:href="#aL"/><use transform="matrix(0.08641975308641976,0,0,0.08641975308641976,36.2962962962963,0)" xlink:href="#ae"/><use transform="matrix(0.08641975308641976,0,0,0.08641975308641976,44.93827160493828,0)" xlink:href="#ad"/><use transform="matrix(0.08641975308641976,0,0,0.08641975308641976,63.8641975308642,0)" xlink:href="#ab"/><use transform="matrix(0.08641975308641976,0,0,0.08641975308641976,81.14814814814815,0)" xlink:href="#V"/><use transform="matrix(0.08641975308641976,0,0,0.08641975308641976,89.79012345679013,0)" xlink:href="#ac"/><use transform="matrix(0.08641975308641976,0,0,0.08641975308641976,108.71604938271604,0)" xlink:href="#aa"/><use transform="matrix(0.08641975308641976,0,0,0.08641975308641976,127.64197530864197,0)" xlink:href="#S"/><use transform="matrix(0.08641975308641976,0,0,0.08641975308641976,144.92592592592592,0)" xlink:href="#aM"/><use transform="matrix(0.08641975308641976,0,0,0.08641975308641976,163.07407407407408,0)" xlink:href="#aM"/></g><path fill="#3a414a" d="M25-224v-37h50v37H25zM75 22c2 45-34 59-81 51V38c22 5 31-5 31-27v-201h50V22" id="aN"/><path fill="#3a414a" d="M110-194c64 0 96 36 96 99 0 64-35 99-97 99-61 0-95-36-95-99 0-62 34-99 96-99zm-1 164c35 0 45-28 45-65 0-40-10-65-43-65-34 0-45 26-45 65 0 36 10 65 43 65" id="aO"/><path fill="#3a414a" d="M135-194c87-1 58 113 63 194h-50c-7-57 23-157-34-157-59 0-34 97-39 157H25l-1-190h47c2 12-1 28 3 38 12-26 28-41 61-42" id="aP"/><g id="t"><use transform="matrix(0.08641975308641976,0,0,0.08641975308641976,0,0)" xlink:href="#aN"/><use transform="matrix(0.08641975308641976,0,0,0.08641975308641976,8.641975308641976,0)" xlink:href="#aO"/><use transform="matrix(0.08641975308641976,0,0,0.08641975308641976,27.567901234567906,0)" xlink:href="#ap"/><use transform="matrix(0.08641975308641976,0,0,0.08641975308641976,36.20987654320988,0)" xlink:href="#aP"/></g><use transform="matrix(0.08641975308641976,0,0,0.08641975308641976,0,0)" xlink:href="#au" id="u"/><path fill="#3a414a" d="M85 4C-2 5 27-109 22-190h50c7 57-23 150 33 157 60-5 35-97 40-157h50l1 190h-47c-2-12 1-28-3-38-12 25-28 42-61 42" id="aQ"/><path fill="#3a414a" d="M135-150c-39-12-60 13-60 57V0H25l-1-190h47c2 13-1 29 3 40 6-28 27-53 61-41v41" id="aR"/><g id="v"><use transform="matrix(0.08641975308641976,0,0,0.08641975308641976,0,0)" xlink:href="#av"/><use transform="matrix(0.08641975308641976,0,0,0.08641975308641976,17.283950617283953,0)" xlink:href="#aO"/><use transform="matrix(0.08641975308641976,0,0,0.08641975308641976,36.20987654320988,0)" xlink:href="#aQ"/><use transform="matrix(0.08641975308641976,0,0,0.08641975308641976,55.13580246913581,0)" xlink:href="#aR"/><use transform="matrix(0.08641975308641976,0,0,0.08641975308641976,67.23456790123458,0)" xlink:href="#as"/><use transform="matrix(0.08641975308641976,0,0,0.08641975308641976,84.51851851851853,0)" xlink:href="#aq"/></g><g id="w"><use transform="matrix(0.08641975308641976,0,0,0.08641975308641976,0,0)" xlink:href="#aL"/><use transform="matrix(0.08641975308641976,0,0,0.08641975308641976,18.14814814814815,0)" xlink:href="#aL"/><use transform="matrix(0.08641975308641976,0,0,0.08641975308641976,36.2962962962963,0)" xlink:href="#ae"/><use transform="matrix(0.08641975308641976,0,0,0.08641975308641976,44.93827160493828,0)" xlink:href="#ad"/><use transform="matrix(0.08641975308641976,0,0,0.08641975308641976,63.8641975308642,0)" xlink:href="#ab"/><use transform="matrix(0.08641975308641976,0,0,0.08641975308641976,81.14814814814815,0)" xlink:href="#V"/><use transform="matrix(0.08641975308641976,0,0,0.08641975308641976,89.79012345679013,0)" xlink:href="#ac"/><use transform="matrix(0.08641975308641976,0,0,0.08641975308641976,108.71604938271604,0)" xlink:href="#aa"/><use transform="matrix(0.08641975308641976,0,0,0.08641975308641976,127.64197530864197,0)" xlink:href="#S"/><use transform="matrix(0.08641975308641976,0,0,0.08641975308641976,144.92592592592592,0)" xlink:href="#aM"/><use transform="matrix(0.08641975308641976,0,0,0.08641975308641976,163.07407407407408,0)" xlink:href="#aM"/></g><path d="M23-100v-36l175-74v27L47-118l151 64v27" id="aS"/><path d="M111-194c62-3 86 47 72 106H45c-7 38 6 69 45 68 27-1 43-14 53-32l24 11C152-15 129 4 87 4 38 3 12-23 12-71c0-70 32-119 99-123zm44 81c14-66-71-72-95-28-4 8-8 17-11 28h106" id="aT"/><path d="M124 0L87-78 21 0h-35l86-98-46-92h33l34 74 61-74h37l-83 92 50 98h-34" id="aU"/><path d="M51-54c-9 22 5 41 31 30L79-1C43 14 10-4 19-52l22-115H19l5-23h22l19-43h21l-9 43h35l-4 23H73" id="aV"/><path d="M67-158c22-48 132-52 116 29L158 0h-32l25-140c3-38-53-32-70-12C52-117 51-52 38 0H6l36-190h30" id="aW"/><path d="M133-28C103 26-5 8 13-77c13-62 24-115 90-117 29-1 46 15 56 35l19-102h32L160 0h-30zM45-64c-2 27 10 43 35 43 54-1 69-50 69-103 0-29-15-46-42-46-53-1-58 58-62 106" id="aX"/><path d="M23-27v-27l151-64-151-65v-27l175 74v36" id="aY"/><g id="x"><use transform="matrix(0.08641975308641976,0,0,0.08641975308641976,0,0)" xlink:href="#aS"/><use transform="matrix(0.08641975308641976,0,0,0.08641975308641976,18.14814814814815,0)" xlink:href="#aS"/><use transform="matrix(0.08641975308641976,0,0,0.08641975308641976,36.2962962962963,0)" xlink:href="#aT"/><use transform="matrix(0.08641975308641976,0,0,0.08641975308641976,53.580246913580254,0)" xlink:href="#aU"/><use transform="matrix(0.08641975308641976,0,0,0.08641975308641976,69.13580246913581,0)" xlink:href="#aV"/><use transform="matrix(0.08641975308641976,0,0,0.08641975308641976,77.77777777777779,0)" xlink:href="#aT"/><use transform="matrix(0.08641975308641976,0,0,0.08641975308641976,95.06172839506173,0)" xlink:href="#aW"/><use transform="matrix(0.08641975308641976,0,0,0.08641975308641976,112.34567901234568,0)" xlink:href="#aX"/><use transform="matrix(0.08641975308641976,0,0,0.08641975308641976,129.62962962962965,0)" xlink:href="#aY"/><use transform="matrix(0.08641975308641976,0,0,0.08641975308641976,147.7777777777778,0)" xlink:href="#aY"/></g><path fill="#3a414a" d="M121-226c-27-7-43 5-38 36h38v33H83V0H34v-157H6v-33h28c-9-59 32-81 87-68v32" id="aZ"/><g id="y"><use transform="matrix(0.08641975308641976,0,0,0.08641975308641976,0,0)" xlink:href="#av"/><use transform="matrix(0.08641975308641976,0,0,0.08641975308641976,17.283950617283953,0)" xlink:href="#aq"/><use transform="matrix(0.08641975308641976,0,0,0.08641975308641976,34.567901234567906,0)" xlink:href="#aR"/><use transform="matrix(0.08641975308641976,0,0,0.08641975308641976,46.66666666666667,0)" xlink:href="#at"/><use transform="matrix(0.08641975308641976,0,0,0.08641975308641976,56.95061728395062,0)" xlink:href="#ap"/><use transform="matrix(0.08641975308641976,0,0,0.08641975308641976,65.5925925925926,0)" xlink:href="#aZ"/><use transform="matrix(0.08641975308641976,0,0,0.08641975308641976,75.87654320987654,0)" xlink:href="#ap"/><use transform="matrix(0.08641975308641976,0,0,0.08641975308641976,84.51851851851852,0)" xlink:href="#av"/><use transform="matrix(0.08641975308641976,0,0,0.08641975308641976,101.80246913580245,0)" xlink:href="#au"/><use transform="matrix(0.08641975308641976,0,0,0.08641975308641976,119.08641975308642,0)" xlink:href="#at"/></g><g id="z"><use transform="matrix(0.08641975308641976,0,0,0.08641975308641976,0,0)" xlink:href="#aP"/><use transform="matrix(0.08641975308641976,0,0,0.08641975308641976,18.925925925925927,0)" xlink:href="#aO"/><use transform="matrix(0.08641975308641976,0,0,0.08641975308641976,37.851851851851855,0)" xlink:href="#at"/><use transform="matrix(0.08641975308641976,0,0,0.08641975308641976,48.13580246913581,0)" xlink:href="#ap"/><use transform="matrix(0.08641975308641976,0,0,0.08641975308641976,56.77777777777777,0)" xlink:href="#aZ"/><use transform="matrix(0.08641975308641976,0,0,0.08641975308641976,67.06172839506173,0)" xlink:href="#ap"/><use transform="matrix(0.08641975308641976,0,0,0.08641975308641976,75.70370370370371,0)" xlink:href="#av"/><use transform="matrix(0.08641975308641976,0,0,0.08641975308641976,92.98765432098766,0)" xlink:href="#au"/><use transform="matrix(0.08641975308641976,0,0,0.08641975308641976,110.27160493827162,0)" xlink:href="#at"/><use transform="matrix(0.08641975308641976,0,0,0.08641975308641976,120.55555555555554,0)" xlink:href="#ap"/><use transform="matrix(0.08641975308641976,0,0,0.08641975308641976,129.19753086419755,0)" xlink:href="#aO"/><use transform="matrix(0.08641975308641976,0,0,0.08641975308641976,148.12345679012347,0)" xlink:href="#aP"/><use transform="matrix(0.08641975308641976,0,0,0.08641975308641976,167.0493827160494,0)" xlink:href="#as"/></g><path d="M108 0H70L1-190h34L89-25l56-165h34" id="ba"/><g id="A"><use transform="matrix(0.08641975308641976,0,0,0.08641975308641976,0,0)" xlink:href="#ax"/><use transform="matrix(0.08641975308641976,0,0,0.08641975308641976,17.283950617283953,0)" xlink:href="#aj"/><use transform="matrix(0.08641975308641976,0,0,0.08641975308641976,24.111111111111114,0)" xlink:href="#az"/><use transform="matrix(0.08641975308641976,0,0,0.08641975308641976,39.66666666666667,0)" xlink:href="#K"/><use transform="matrix(0.08641975308641976,0,0,0.08641975308641976,55.22222222222223,0)" xlink:href="#M"/><use transform="matrix(0.08641975308641976,0,0,0.08641975308641976,72.50617283950618,0)" xlink:href="#ba"/><use transform="matrix(0.08641975308641976,0,0,0.08641975308641976,88.06172839506173,0)" xlink:href="#an"/><use transform="matrix(0.08641975308641976,0,0,0.08641975308641976,105.34567901234568,0)" xlink:href="#N"/></g><path d="M24 0v-261h32V0H24" id="bb"/><g id="B"><use transform="matrix(0.08641975308641976,0,0,0.08641975308641976,0,0)" xlink:href="#al"/><use transform="matrix(0.08641975308641976,0,0,0.08641975308641976,17.283950617283953,0)" xlink:href="#bb"/><use transform="matrix(0.08641975308641976,0,0,0.08641975308641976,24.111111111111114,0)" xlink:href="#bb"/></g><g id="C"><use transform="matrix(0.08641975308641976,0,0,0.08641975308641976,0,0)" xlink:href="#K"/><use transform="matrix(0.08641975308641976,0,0,0.08641975308641976,15.555555555555557,0)" xlink:href="#M"/><use transform="matrix(0.08641975308641976,0,0,0.08641975308641976,32.839506172839506,0)" xlink:href="#ag"/><use transform="matrix(0.08641975308641976,0,0,0.08641975308641976,50.123456790123456,0)" xlink:href="#N"/><use transform="matrix(0.08641975308641976,0,0,0.08641975308641976,60.407407407407405,0)" xlink:href="#az"/><use transform="matrix(0.08641975308641976,0,0,0.08641975308641976,75.96296296296296,0)" xlink:href="#an"/><use transform="matrix(0.08641975308641976,0,0,0.08641975308641976,93.2469135802469,0)" xlink:href="#az"/></g><path d="M24-231v-30h32v30H24zM-9 49c24 4 33-6 33-30v-209h32V24c2 40-23 58-65 49V49" id="bc"/><g id="D"><use transform="matrix(0.08641975308641976,0,0,0.08641975308641976,0,0)" xlink:href="#bc"/><use transform="matrix(0.08641975308641976,0,0,0.08641975308641976,6.8271604938271615,0)" xlink:href="#M"/><use transform="matrix(0.08641975308641976,0,0,0.08641975308641976,24.111111111111114,0)" xlink:href="#aj"/><use transform="matrix(0.08641975308641976,0,0,0.08641975308641976,30.938271604938276,0)" xlink:href="#ai"/></g><g id="E"><use transform="matrix(0.08641975308641976,0,0,0.08641975308641976,0,0)" xlink:href="#K"/><use transform="matrix(0.08641975308641976,0,0,0.08641975308641976,15.555555555555557,0)" xlink:href="#M"/><use transform="matrix(0.08641975308641976,0,0,0.08641975308641976,32.839506172839506,0)" xlink:href="#ag"/><use transform="matrix(0.08641975308641976,0,0,0.08641975308641976,50.123456790123456,0)" xlink:href="#N"/><use transform="matrix(0.08641975308641976,0,0,0.08641975308641976,60.407407407407405,0)" xlink:href="#az"/><use transform="matrix(0.08641975308641976,0,0,0.08641975308641976,75.96296296296296,0)" xlink:href="#N"/><use transform="matrix(0.08641975308641976,0,0,0.08641975308641976,86.24691358024691,0)" xlink:href="#az"/></g><g id="F"><use transform="matrix(0.08641975308641976,0,0,0.08641975308641976,0,0)" xlink:href="#aS"/><use transform="matrix(0.08641975308641976,0,0,0.08641975308641976,18.14814814814815,0)" xlink:href="#aS"/><use transform="matrix(0.08641975308641976,0,0,0.08641975308641976,36.2962962962963,0)" xlink:href="#aT"/><use transform="matrix(0.08641975308641976,0,0,0.08641975308641976,53.580246913580254,0)" xlink:href="#aU"/><use transform="matrix(0.08641975308641976,0,0,0.08641975308641976,69.13580246913581,0)" xlink:href="#aV"/><use transform="matrix(0.08641975308641976,0,0,0.08641975308641976,77.77777777777779,0)" xlink:href="#aT"/><use transform="matrix(0.08641975308641976,0,0,0.08641975308641976,95.06172839506173,0)" xlink:href="#aW"/><use transform="matrix(0.08641975308641976,0,0,0.08641975308641976,112.34567901234568,0)" xlink:href="#aX"/><use transform="matrix(0.08641975308641976,0,0,0.08641975308641976,129.62962962962965,0)" xlink:href="#aY"/><use transform="matrix(0.08641975308641976,0,0,0.08641975308641976,147.7777777777778,0)" xlink:href="#aY"/></g><path fill="#3a414a" d="M114-157C55-157 80-60 75 0H25v-261h50l-1 109c12-26 28-41 61-42 86-1 58 113 63 194h-50c-7-57 23-157-34-157" id="bd"/><g id="G"><use transform="matrix(0.08641975308641976,0,0,0.08641975308641976,0,0)" xlink:href="#as"/><use transform="matrix(0.08641975308641976,0,0,0.08641975308641976,17.283950617283953,0)" xlink:href="#aq"/><use transform="matrix(0.08641975308641976,0,0,0.08641975308641976,34.567901234567906,0)" xlink:href="#au"/><use transform="matrix(0.08641975308641976,0,0,0.08641975308641976,51.851851851851855,0)" xlink:href="#aR"/><use transform="matrix(0.08641975308641976,0,0,0.08641975308641976,63.95061728395062,0)" xlink:href="#av"/><use transform="matrix(0.08641975308641976,0,0,0.08641975308641976,81.23456790123458,0)" xlink:href="#bd"/></g><g id="H"><use transform="matrix(0.08641975308641976,0,0,0.08641975308641976,0,0)" xlink:href="#aZ"/><use transform="matrix(0.08641975308641976,0,0,0.08641975308641976,10.283950617283951,0)" xlink:href="#aO"/><use transform="matrix(0.08641975308641976,0,0,0.08641975308641976,29.20987654320988,0)" xlink:href="#aR"/></g><use transform="matrix(0.08641975308641976,0,0,0.08641975308641976,0,0)" xlink:href="#au" id="I"/></defs></g></svg>